<svg xmlns="http://www.w3.org/2000/svg" viewBox="0 0 24 24" fill="#FCC624"><path d="M12.504 0c-.155 0-.315.008-.48.021-4.226.333-3.105 4.807-3.17 6.298-.076 1.092-.3 1.953-1.05 3.02-.885 1.051-2.127 2.75-2.716 4.521-.278.832-.41 1.684-.287 2.489a.424.424 0 0 0-.11.135c-.26.268-.45.6-.663.839-.199.199-.485.267-.797.4-.313.136-.658.269-.864.68-.09.189-.136.394-.132.602 0 .199.027.4.055.536.058.399.116.728.04.97-.249.68-.28 1.145-.106 1.484.174.334.535.47.94.601.81.2 1.91.135 2.774.6.926.466 1.866.67 2.616.47.526-.116.97-.464 1.208-.946.587-.003 1.23-.269 2.26-.334.699-.058 1.574.267 2.577.2.025.134.063.198.114.333l.003.003c.391.778 1.113 1.132 1.884 1.071.771-.06 1.592-.536 2.257-1.306.631-.765 1.683-1.084 2.378-1.503.348-.199.629-.469.649-.853.023-.4-.2-.811-.714-1.376v-.097l-.003-.003c-.17-.2-.25-.535-.338-.926-.085-.401-.182-.786-.492-1.046h-.003c-.059-.054-.123-.067-.188-.135a.357.357 0 0 0-.19-.064c.431-1.278.264-2.55-.173-3.694-.533-1.41-1.465-2.638-2.175-3.483-.796-1.005-1.576-1.957-1.56-3.368.026-2.152.236-6.133-3.544-6.139zm.529 3.405h.013c.213 0 .396.062.584.198.19.135.33.332.438.533.105.259.158.459.166.724 0-.02.006-.04.006-.06v.105a.086.086 0 0 1-.004-.021l-.004-.024a1.807 1.807 0 0 1-.15.706.953.953 0 0 1-.213.335.71.71 0 0 0-.088-.042c-.104-.045-.198-.064-.284-.133a1.312 1.312 0 0 1-.22-.253 1.73 1.73 0 0 0-.106-.3c-.065-.135-.073-.363-.046-.465.03-.135.087-.234.171-.334.063-.135.211-.2.33-.2zm-1.9.666c.033 0 .066.002.099.007.53.076.478.836.373 1.137-.11.27-.09.6-.009.929.102.399.291.732.39 1.071.106.399.134.865-.052 1.182-.087.135-.21.2-.347.2-.207 0-.431-.135-.711-.2-.27-.135-.463-.333-.676-.467a1.78 1.78 0 0 1-.392-.333c-.135-.2-.2-.4-.2-.667-.001-.399.064-.932.197-1.332.135-.466.463-.865.863-1.199a1.882 1.882 0 0 1 .465-.268v.001zm3.671 2.936c.18 0 .368.092.539.135.204.058.4.135.598.331.135.135.265.4.335.465.135.135.2.4.2.6 0 .135 0 .333-.135.465-.135.135-.267.2-.467.333-.2.135-.466.2-.666.2-.135 0-.267-.066-.4-.135a.867.867 0 0 1-.333-.333c-.135-.135-.135-.465-.2-.665-.066-.2-.066-.4 0-.535.066-.135.2-.2.333-.266.135-.066.265-.2.465-.2zm-1.8 3.869c.24 0 .527.135.87.27.274.135.6.135.865.2.267.066.533.066.667.2.135.135.135.4 0 .533-.068.066-.201.2-.4.333-.2.135-.467.333-.733.4-.2.066-.465.066-.733 0a1.592 1.592 0 0 1-.533-.2c-.2-.135-.333-.267-.466-.4-.135-.2-.2-.333-.2-.533 0-.135.066-.2.2-.333.135-.135.333-.268.466-.268zm-1.869 3.801c.135 0 .268.066.4.135.135.066.2.2.267.333.066.135.066.2.066.333 0 .135 0 .333-.135.465-.135.135-.2.2-.4.267-.2.066-.333.066-.533 0-.2-.066-.4-.2-.533-.333-.135-.135-.2-.333-.135-.533.066-.135.135-.333.267-.4.135-.066.2-.2.333-.2.135-.066.267-.066.4-.066z"/></svg>