<svg xmlns="http://www.w3.org/2000/svg" version="1.1" width="40.000000pt" height="40.000000pt" viewBox="0 0 200 200" style="overflow:hidden!important;"><g id="svga-group-wrapper"><g id="svga-group-backs-single"></g><g id="svga-group-humanwrap-move" transform="matrix(1,0,0,1,0,0)"><g id="svga-group-humanwrap"><g id="svga-group-hair-back-move" transform="matrix(1,0,0,1,0,0)"><g id="svga-group-hair-back"></g></g><g id="svga-group-humanbody-back"><path id="SvgjsPath11990" d="M166.5 181.1c-10.9-6.6-27.6-8.4-35-12.1-4.9-2.5-9.1-4.7-8.9-17.8s1.9-42.4 1.9-42.4H75.4s1.6 29.4 1.9 42.4-4.2 15.6-8.9 17.8c-7.4 3.5-24.1 5.4-35 12.1-10.8 6.6-10 18.9-10 18.9v19.7h153.3V200c-.1 0 .7-12.3-10.2-18.9z" fill="#f0c7b1" stroke-width="none" opacity="1" stroke="none"></path></g><g id="svga-group-chinshadow-single"><path id="SvgjsPath12251" d="M76.6 159.7c11 5 20.4 5.7 23.4 5.7s12.4-.8 23.3-5.7c-.5-2.2-.8-4.9-.7-8.5.2-13.1 1.9-42.4 1.9-42.4H75.4s1.6 29.4 1.9 42.4c.1 3.5-.2 6.3-.7 8.5z" fill="#d19271" stroke-width="none" opacity="0.65"></path></g><g id="svga-group-humanbody-front"><path id="SvgjsPath11991" d="M78.7 156.8c.5 4.8 1.7 9.4 3.1 13.9.8 2.3 1.6 4.6 2.6 6.9.8 2 1.7 4.2 3.1 5.9.3.4 1 0 .9-.5-.5-2.2-1.6-4.3-2.4-6.4-.9-2.2-1.7-4.4-2.5-6.6-1.5-4.4-2.8-8.9-4.1-13.3-.2-.4-.8-.3-.7.1zm41.3-1c-1.3 8.2-3.9 16.1-5.4 24.2-.1.4.4.5.6.2 3.1-7.7 4.1-16.1 5.1-24.3-.1-.2-.3-.2-.3-.1zm-25.8 11.9c-.9 3.6 1.9 8.6 6.2 7.6.5-.1.4-.8 0-1-1.4-.5-2.9-.9-3.9-2.1-1.1-1.2-1.5-2.9-1.4-4.5 0-.4-.8-.5-.9 0z" fill="#d19271" stroke-width="none" opacity="1" stroke="none"></path><path id="SvgjsPath11992" d="M177.3 219.7c-.1-6.6-.3-13.1-.3-19.7l-.3-.3c.1 0 .1 0 .2.1s.1.2.1.1v-1.4c0-.5-.1-.9-.1-1.4-.1-.9-.3-1.9-.5-2.8-.5-1.8-1.1-3.6-2-5.3-1.7-3.4-4.4-6.2-7.7-8.1-3.6-2.2-7.6-3.8-11.6-5.1-4-1.3-8.1-2.4-12.1-3.5-4-1.2-8.1-2.2-11.8-4.2-1.9-1-3.6-2.1-4.8-3.6-1.2-1.6-1.9-3.5-2.3-5.5-.8-4-.4-8.2-.3-12.4l.7-12.6 1.5-25.2.1-1.4h-1.4c-8.2 0-16.4 0-24.6.1l-24.6.3h-.9l.1.9c.8 11.9 1.6 23.8 2.1 35.7.1 3 .3 6 .2 8.9-.1 2.9-.4 5.9-1.6 8.6-.6 1.3-1.4 2.5-2.4 3.5s-2.3 1.8-3.6 2.4c-2.6 1.3-5.4 2.2-8.3 3-5.8 1.5-11.6 2.8-17.3 4.7-2.8.9-5.7 2-8.4 3.4-1.3.7-2.7 1.4-4 2.4-1.3.9-2.4 1.9-3.5 3.1-2.1 2.3-3.6 5.2-4.5 8.1-.5 1.5-.8 3-1 4.6-.1.8-.1 1.6-.1 2.4v2.3l-.2 17.9v1.3h1.4l38.3.2c12.8.1 25.5.1 38.3 0 12.8-.1 25.6-.1 38.3-.3 12.8-.2 25.6-.5 38.3-.7h.6v-.5zm-77.2-1.6H61.8l-37 .2-.1-16.6v-2.2c0-.7 0-1.4.1-2.1.1-1.4.4-2.8.8-4.2.8-2.7 2.1-5.3 3.9-7.5.9-1.1 2-2.1 3.1-2.9 1.1-.9 2.4-1.6 3.7-2.3 2.6-1.4 5.3-2.5 8.1-3.5 5.6-2 11.4-3.4 17.1-5.1 2.9-.8 5.8-1.7 8.5-3.1 1.3-.7 2.7-1.5 3.8-2.6 1.1-1.1 2-2.4 2.6-3.9 1.2-2.9 1.5-5.9 1.6-8.9 0-3-.1-6-.2-9l-1.3-34.8 23.5.4c7.7.1 15.4.1 23.1.1-.4 7.9-.8 15.9-1.1 23.8-.2 4.2-.2 8.4-.3 12.6 0 4.2-.2 8.5.8 12.8.5 2.1 1.3 4.2 2.8 6 1.4 1.7 3.4 2.9 5.3 3.8 3.9 1.9 8 2.8 12.1 3.8s8.2 2 12.2 3.3c4 1.3 7.9 2.8 11.5 5 3.2 1.9 5.8 4.7 7.5 8 .9 1.6 1.5 3.4 1.9 5.2.2.9.4 1.8.4 2.7.1.5.1.9.1 1.4V200l-.3 19c-12.6-.2-25.1-.5-37.7-.7-12.7-.1-25.5-.1-38.2-.2z" fill="#c27b55" stroke-width="none" opacity="1" stroke="none"></path></g><g id="svga-group-clothes-single"><path id="SvgjsPath11884" d="M127.8 142.4c10.7 3.1 5.9 12.4 6.7 12.7 5.2 2.2 6.4 9.8 5.2 12.4 0 0 5.1 1.6 7.9 2.4 8.6 2.4 29.9 8.2 33.1 23.5 0 0 2.6 9.2 2.6 26.7H16.7c0-17.5 2.6-26.7 2.6-26.7 3-14 23.7-22.7 32.5-24.6 3.6-.8 6.9-2.1 10-2.6 0-3-.8-8.7 4.9-11.3 2.2-1-3.5-9.3 5.8-12.6 0 0 9.6 8.8 27.9 9.4s27.4-9.3 27.4-9.3z" fill="#f14848" stroke-width="none" opacity="1" stroke="none"></path><path id="SvgjsPath11885" d="M183.4 200.5c-.4-3.2-1-6.5-2.1-9.8-1.1-3.3-3.1-6.2-5.6-8.6-2.4-2.4-5.2-4.3-8.1-5.9-2.9-1.6-5.9-2.9-9-4.1-3.1-1.1-6.2-2-9.4-2.9-2.9-.7-5.7-1.6-8.5-2.4.3-1.2.2-2.3.1-3.3-.2-1.4-.6-2.7-1.1-3.9-.6-1.2-1.3-2.4-2.3-3.4-.5-.5-1.1-.9-1.6-1.3-.2-.1-.5-.3-.8-.4v-.4c.2-1.2.4-2.6.3-3.9-.1-1.3-.4-2.7-1.1-3.9-.7-1.2-1.7-2.1-2.8-2.8-5.2-3.6-7.2-2.4-7.5-2.2 0 0-.5 3-2.9 5-2.2 1.1-3.9 2.1-6.3 2.7-4.7 1.4-9.7 1.9-14.6 1.6-4.9-.3-9.8-1.1-14.4-2.7-2.3-.8-4.6-1.8-6.7-2.9-2.1-1.1-2.6-3.2-2.6-3.2-1.8-1.4-4.1-1.1-4.6-.9-1.2.4-2.4 1-3.5 1.9-1.1.9-2 2.1-2.4 3.5-.5 1.4-.5 2.8-.4 4 0 .6.1 1.3.2 1.9.1.5.1 1.1.1 1.4-.2.1-.3.1-.5.2-.6.3-1.2.7-1.7 1.2-1.1.9-2 2.1-2.5 3.4-.9 2.2-.9 4.4-.9 6.4-3 .7-5.7 1.6-8.5 2.2-3.4.7-6.6 1.8-9.8 3.1-3.1 1.3-6.2 2.8-9.1 4.6-2.9 1.8-5.7 3.9-8.2 6.3-2.5 2.4-4.7 5.3-6 8.7-.3.8-.6 1.7-.8 2.6-.2.8-.4 1.7-.6 2.5-.3 1.7-.6 3.3-.8 5-.9 6.7-1.2 13.4-1.2 20.1 0 .8.6 1.4 1.4 1.4l166.7-.1c.7 0 1.2-.6 1.2-1.2.1-6.4-.2-13-1.1-19.5zm-4.5-8.9c.9 2.9 1.4 6.1 1.9 9.3.8 5.9 1.1 11.9 1.3 18l-25.1.4c.3-3.5.6-6.9 1-10.3.4-3.7 1-7.3 1.6-10.9.3-1.8.7-3.6 1.1-5.4.5-1.7 1.1-3.4 1.9-5.1 1.3-3 3-5.8 4.8-8.5 2.4 1.4 4.6 3.1 6.6 5.1 2.2 2 4 4.6 4.9 7.4zm-42.3-34.4c.8.9 1.4 1.9 1.9 3.1.5 1.1.8 2.3.9 3.5.1 1.2.1 2.5-.3 3.4v.1c-.1.3 0 .7.3.9-.4.5-.8.9-1.3 1.3-.3.3-.7.6-1 .8-.4.3-.7.5-1.1.8-.5.4-1.1.7-1.6 1 .2-.6.3-1.1.5-1.7.1-.7.3-1.4.3-2.1.1-1.4.1-2.9-.2-4.3-.3-1.4-.8-2.8-1.6-4.1-.7-1.1-1.5-2.1-2.5-2.9 1.1-.5 2.3-1 3.4-1.6 0 .1.1.1.1.1.3.2.2.1.2.1.3.1.5.3.8.4.3.4.7.8 1.2 1.2zM75 145.6c.8.5 1.6.9 2.4 1.4.3.3.6.5 1 .8-.7.6-1.2 1.4-1.6 2.3-.6 1.1-1 2.2-1.3 3.4-.3 1.2-.4 2.4-.5 3.6v2.7c-.7-.3-1.3-.7-2-1.1l-.3-1.8c-.1-.6-.1-1.2-.2-1.8 0-.6-.1-1.2-.1-1.8 0-.6 0-1.2.1-1.8.1-1.2.4-2.4.9-3.5.5-.9 1-1.7 1.6-2.4zm15.3 8.1c1 .3 2.1.5 3.1.8 1.1.2 2.1.4 3.2.5-2-.7-4-1.3-6-2.1-.5-.2-1-.4-1.4-.6 0-.4.1-.8.2-1.2 2.7.6 5.5 1 8.3 1.1-.2 1.3-.4 2.5-.5 3.8-.1 1.4-.1 2.8.1 4.3-1.6 0-3.2-.1-4.8-.3-1.3-.1-2.6-.2-3.9-.5V159.2c-.1-1.1-.2-2.1-.1-3.2 0-.5.1-1.1.2-1.6.1-.4.2-.9.3-1.3.4.3.8.5 1.3.6zm-2.5 2.4c-.1 1.1-.2 2.1-.1 3.2v.1c-.4-.1-.8-.2-1.3-.4.4.2.8.4 1.2.5-.2.4-.3.8-.4 1.1-.2.5-.3 1-.4 1.5-.2.8-.2 1.7-.3 2.5l-1.2-.4c-1.9-.7-3.9-1.5-5.8-2.3l-.1-1.2c0-.5-.1-1.1-.1-1.6 0-1.1.1-2.1.2-3.2.2-1.1.4-2.1.8-3.1s.8-1.9 1.4-2.8c.8.4 1.6.9 2.4 1.3 1.4.7 2.8 1.2 4.3 1.8l-.6 3zm-7.7-3.4c-.5 1-.8 2-1.1 3.1-.3 1.1-.4 2.2-.4 3.3v1.7l.1.7c-.9-.4-1.8-.8-2.6-1.2l-.1-1.5V157c.1-1.2.1-2.3.3-3.5.2-1.1.5-2.3 1-3.4.3-.8.8-1.6 1.3-2.4.1.1.2.2.3.2 1 .8 2 1.4 3.1 2.1-.8.8-1.4 1.8-1.9 2.7zm-7.5 6.7c.7.4 1.4.9 2.1 1.2l-.9.9c-.4.5-.8 1.1-1.1 1.6-.6 1.1-1 2.4-1.2 3.6-.2 1.2-.3 2.5-.3 3.8l.1 1.9c0 .4.1.7.2 1.1-.5-.3-1.1-.5-1.6-.8-.8-.4-1.5-.8-2.2-1.3V170c.1-.6.1-1.2.2-1.8.2-1.2.3-2.4.8-3.5.4-1.1.9-2.2 1.6-3.1.6-.9 1.4-1.7 2.3-2.2zm-1 13 .1-1.8c.1-1.2.2-2.4.6-3.6.3-1.2.7-2.3 1.3-3.3.5-.9 1.2-1.9 2.1-2.5.9.5 1.9.9 2.8 1.4-.6.9-1.1 1.8-1.6 2.8-.5 1.2-.9 2.4-1.1 3.6-.2 1.2-.3 2.5-.2 3.7.1.9.2 1.8.4 2.7-1.5-.5-3-1.1-4.4-1.8v-1.2zm4.5 3c0-.3-.1-.6-.1-.9v-1.8c0-1.2.2-2.4.5-3.6.3-1.2.7-2.3 1.2-3.4.4-1 1-1.9 1.6-2.8l2.4.9c1.1.4 2.2.8 3.4 1.1.5.1.9.3 1.4.4-.6 2.1-1 4.3-1.2 6.5-.2 1.9-.2 3.9 0 5.8-1.9-.3-3.8-.7-5.7-1.2-1.2-.2-2.3-.6-3.5-1zm9.5 0c.1-1.1.2-2.2.4-3.4.4-2.1.8-4.3 1.5-6.4.4.1.7.2 1.1.3 1.2.2 2.3.5 3.5.8l-4.5-1.6c0-.9.1-1.8.2-2.7.1-.5.2-1 .3-1.4.1-.4.2-.8.4-1.1.3.1.6.1.8.2l3 .6c1.6.2 3.2.4 4.8.5-.3 1.4-.6 2.8-.8 4.2-.2 1.6-.3 3.2-.4 4.9-.1 1.6 0 3.3.1 4.9.1 1.2.2 2.4.4 3.6-3.7-.1-7.4-.4-11.1-1 .1-.9.2-1.7.3-2.4zm11.1 3.3c0-1.2-.1-2.4-.1-3.7 0-1.6.1-3.2.2-4.8.1-1.6.2-3.2.5-4.8.2-1.4.4-2.9.7-4.3h.5c2.2.1 4.3.1 6.5.1-.1 3.1-.1 6.1.2 9.1.1 1.6.3 3.1.6 4.7.2 1.1.4 2.2.8 3.3l-.9.1-2.6.2c-.9 0-1.8 0-2.6.1h-3.8zm8.7-22.4c-.1-1.4-.2-2.7-.3-4.1 2-.2 3.9-.5 5.9-.9.3 1.4.4 2.9.5 4.3.1 1.5.1 3 0 4.4-.2 0-.5 0-.7.1-1.6.1-3.3.2-4.9.2-.2-1.3-.4-2.6-.5-4zm10.4 3.4c-1.2.1-2.3.2-3.5.3 0-.7 0-1.4-.1-2-.1-.8-.2-1.6-.2-2.4-.1-.8-.3-1.6-.5-2.4-.2-.6-.3-1.3-.6-1.9l3.3-.9c.7 1.5 1.1 3.1 1.3 4.7.4 1.5.4 3.1.3 4.6zm-9.1 18.7c-.2-1.1-.3-2.2-.4-3.4-.2-1.6-.2-3.1-.3-4.7-.1-3-.2-6.1-.2-9.1 1.7 0 3.3-.1 4.9-.1.3 0 .6-.1.8-.1.4 1.2.8 2.5 1.1 3.8.4 1.4.7 2.9.9 4.4.2 1.5.5 3 .6 4.5l.3 3.9-1.2.2-2.6.3-2.6.3h-1.3zm7.9-9.3c-.2-1.5-.5-3-.9-4.5-.3-1.2-.7-2.4-1.1-3.6 1.1-.1 2.2-.2 3.3-.4.8 1.1 1.4 2.4 2 3.8.5 1.4.9 2.8 1.3 4.2.3 1.4.6 2.9.8 4.3l.2 2.2c0 .5.1 1 .1 1.5-1.4.3-2.8.6-4.2.7l-1.3.2c.1-1.3.2-2.6.2-3.9-.1-1.4-.2-3-.4-4.5zm5.4-.7c-.3-1.5-.7-2.9-1.2-4.4-.5-1.2-1.1-2.4-1.9-3.6 2.1-.3 4.1-.7 6.1-1.2.9-.2 1.9-.5 2.8-.8 1 .8 1.9 1.9 2.6 3.1.7 1.2 1.3 2.4 1.8 3.8.4 1.3.8 2.7 1 4.1.1.7.2 1.4.2 2.1l.1 1.7c-.1 0-.2.1-.3.1-3.2 1.4-6.6 2.3-10 3-.3.1-.6.1-.8.2.1-1.2.2-2.5.1-3.7-.1-1.4-.2-2.9-.5-4.4zm11.7 1c-.1-1.4-.3-2.9-.7-4.3-.4-1.4-1-2.8-1.7-4-.6-1.1-1.4-2-2.4-2.9l2.7-.9c1.1.7 2 1.8 2.7 2.9.7 1.1 1.3 2.4 1.6 3.8.3 1.3.5 2.7.5 4.1 0 .7-.1 1.4-.1 2.1l-.2 1.7c-.8.4-1.7.9-2.6 1.2.1-.6.1-1.1.1-1.6.1-.6.2-1.4.1-2.1zm-5.1-25.6.7-.6.3-.3.2-.2.1-.1c.1.1.2.1.4.1l.4.2c.3.1.6.2.9.4.6.3 1.1.6 1.6.9 1 .7 1.9 1.6 2.5 2.7.6 1.1.8 2.3.8 3.6 0 1.2-.2 2.4-.5 3.7 0 .2-.1.3-.1.5v.4c0 .1 0 .1.1.2-1.2.5-2.4.9-3.6 1.3v-1.4c-.1-.6-.1-1.2-.2-1.8-.1-1.2-.5-2.3-.9-3.4-.5-1.1-1.1-2.1-1.8-3-.7-.8-1.5-1.6-2.4-2.1.5-.4 1-.7 1.5-1.1zM122 147c1.1-.6 2.1-1.3 3.1-2.1 1.7 1.4 2.8 3.3 3.6 5.4.3 1.1.6 2.2.7 3.3.1.6.1 1.1.1 1.7v1.7c-.2.1-.4.1-.6.2-.7.2-1.5.4-2.2.6l-.1-1.2c-.1-.5-.2-1.1-.2-1.6-.2-1.1-.5-2.1-.9-3.1s-.9-1.9-1.6-2.8c-.6-.7-1.3-1.4-2.1-1.9-.1 0 0-.1.2-.2zm-6.9 3.2c2.2-.8 4.4-1.7 6.4-2.9.7.6 1.3 1.3 1.8 2.1.6.9 1 1.8 1.3 2.8.3 1 .5 2 .7 3 .1.5.1 1 .2 1.5l.1 1.3c-.9.2-1.8.4-2.8.6-2 .4-4.1.7-6.1 1 0-.6 0-1.3-.1-1.9-.1-.9-.2-1.8-.4-2.6-.2-.9-.4-1.7-.8-2.6-.3-.7-.7-1.5-1.1-2.1.3-.1.6-.2.8-.2zm-10.1 2c-.1 1.4-.2 2.8-.2 4.1 0 1.3 0 2.7.1 4H98.1c-.3-1.4-.4-2.8-.4-4.3v-3.8c.8.1 1.7.1 2.5.1 1.6.1 3.2.1 4.8-.1zm-15.9-1.1-.3 1.2c-1.4-.6-2.7-1.1-4.1-1.8-1-.5-2.1-1.1-3.1-1.6 1.2.4 2.3.9 3.5 1.2 1.4.4 2.7.7 4 1zm-20.7-3.8c.5-1.7 1.9-2.9 3.7-3.6.9.7 1.8 1.3 2.7 1.9-.2.2-.5.4-.7.7-.4.5-.8 1-1.1 1.6-.6 1.1-1 2.4-1.2 3.6-.3 1.2-.3 2.5-.2 3.8.1.6.1 1.3.2 1.9l.1 1c-.8-.5-1.6-1-2.3-1.6-.5-.4-1-.8-1.5-1.3 0-.1.1-.2.1-.2.1-.3.2-.6.2-.8.1-.9 0-1.5-.1-2.1-.1-.6-.2-1.2-.2-1.7 0-1.3 0-2.3.3-3.2zm-5.2 18.9c0-1.3-.1-2.4 0-3.5 0-1.1.2-2.1.6-3.1.4-.9.9-1.7 1.7-2.4l1.2-.9c.1-.1.2-.1.3-.2l.2-.1.2-.1c.1-.1.2-.1.3-.2.2-.1.3-.3.4-.5 1 1.3 2.3 2.4 3.7 3.4-.9.6-1.6 1.4-2.2 2.2-.7 1.1-1.3 2.2-1.6 3.4-.4 1.2-.5 2.5-.5 3.7 0 .6.1 1.2.1 1.9.1.4.1.9.2 1.3a23.8 23.8 0 0 1-4.9-4c.1-.1.3-.5.3-.9zm-45.1 52.5c.1-6.1.5-12.2 1.4-18.3.2-1.6.5-3.2.9-4.8.2-.8.4-1.5.6-2.3.2-.8.4-1.5.7-2.2 1.1-2.8 3.1-5.4 5.3-7.6 1.7-1.7 3.6-3.2 5.6-4.6 1.9 2.7 3.5 5.6 4.8 8.5.7 1.7 1.4 3.4 1.9 5.1.4 1.7.8 3.6 1.1 5.4.7 3.6 1.2 7.3 1.6 10.9.4 3.3.7 6.7 1 10l-5.5-.1H18.1zm81.9.9c-6.9 0-13.9-.1-20.8-.2l-20.8-.3-15.1-.2c.4-3.4.5-6.8.4-10.1-.1-3.8-.6-7.5-1.3-11.2-.4-1.8-.7-3.7-1.3-5.5-.6-1.8-1.4-3.6-2.3-5.2-1.6-2.9-3.6-5.6-6-8 3.2-2.2 6.8-4 10.4-5.6 3-1.3 6-2.3 9.2-3 3.4-.8 6.5-2 9.6-2.6.2 0 .4-.1.5-.2.8 1 1.7 1.9 2.6 2.8l1 .9 1.1.8c.7.6 1.4 1 2.2 1.6 3 1.9 6.3 3.4 9.8 4.5 6.9 2.1 14.1 2.8 21.2 2.7 7.1-.2 14.2-1 21.2-2.7 3.5-.9 6.9-2.1 10.1-3.7 1.6-.9 3.1-1.7 4.5-2.9 1.2-.9 2.3-2 3.1-3.2.1 0 .1.1.2.1 3.1 1 6.2 2.1 9.3 2.9 3.1.9 6.1 1.9 9.1 3.1 3 1.2 5.9 2.5 8.6 4.1.2.1.5.3.7.4-2.4 2.3-4.4 5.1-6 8-.9 1.7-1.7 3.4-2.3 5.2-.6 1.9-1 3.7-1.3 5.5-.7 3.7-1.1 7.4-1.3 11.2-.1 3.5-.1 7 .4 10.4l-15.1.2c-13.8.2-27.7.3-41.6.2z" fill="#d21515" stroke-width="none" opacity="1" stroke="none"></path></g><g id="svga-group-head" transform="matrix(1,0,0,1,0,0)"><g id="svga-group-ears-left-move" transform="matrix(1,0,0,1,0,0)"><g id="svga-group-ears-left"><path id="SvgjsPath11894" d="M61.3 90s-2.5-2.4-5.4-3.5-6.1.7-7.1 3.7c-1 2.9 1.3 15.1 5 19.5s6.2 4.8 8.7 2.5c2.5-2.3 7-10.8-1.2-22.2z" fill="#f0c7b1" stroke-width="none" opacity="1" stroke="none"></path><path id="SvgjsPath11895" d="M62.6 91.8c.4.6.8 1.3 1.2 1.9.4.6.7 1.4 1.1 2 .3.7.6 1.4.9 2.2.2.8.5 1.5.6 2.4.1.4.2.8.2 1.2l.1 1.2c0 1.7-.2 3.4-.7 4.9-.5 1.6-1.2 3-2.2 4.2-.2.3-.5.6-.8.8-.3.2-.6.5-.9.7-.6.4-1.3.7-2.1.8-.7.1-1.5 0-2.2-.3s-1.3-.7-1.8-1.2c-.6-.5-1.1-1-1.6-1.6s-.9-1.1-1.4-1.8c-1.7-2.6-2.6-5.7-3.4-8.7-.4-1.5-.8-3-1.1-4.6s-.6-3.2-.5-4.9c0-.4.1-.9.2-1.3.1-.2.1-.4.2-.6l.3-.6c.4-.7.9-1.3 1.5-1.8 1.2-1 2.6-1.4 4-1.2.7.1 1.4.3 2 .6.6.3 1.2.7 1.8 1.1 1.2.8 2.3 1.6 3.3 2.6l1.3 2zm-4.7-4.1c-.6-.3-1.2-.6-1.8-.8-.6-.2-1.2-.3-1.8-.3-1.2.1-2.3.6-3.3 1.4-.5.4-.9.9-1.2 1.5-.2.3-.3.6-.4.9-.1.3-.2.6-.2.9-.2 1.4-.1 3 .1 4.6.2 1.5.4 3.1.8 4.6.8 3 1.9 6 3.6 8.2.9 1.1 1.9 2.1 3 2.9s2.2 1.3 3.3 1.1c.5-.1 1.1-.3 1.6-.7.5-.4 1-.8 1.4-1.3.8-1 1.5-2.3 1.9-3.7.5-1.4.7-2.8.7-4.3s-.2-3-.4-4.5c-.6-3-2-5.8-3.7-8.2-1.3-.9-2.4-1.7-3.6-2.3z" fill="#e1ac8f" stroke-width="none" opacity="1" stroke="none"></path><path id="SvgjsPath11896" d="M52.6 89.6c3.3.6 5.4 6.1 6 9.8.1.1.1.2.2.3.4.6-.4 1.2-.8.6-.5-.8-1-1.6-1.8-1.9-1.4-.5-2.1 1.1-1.8 2.6.4 1.9 1.6 3 2.6 4.4.1.1 0 .3-.1.2-1.7-1-4.3-4.8-3.1-7.2.9-1.7 2.3-1.4 3.4-.4-.8-2.1-1.4-4.3-3-5.9-.5-.5-1.5-1.4-2.2-1.3-1.3.2-1.3 2.1-1.3 3.4-.1 1.7.1 3.4.4 5 0 .2-.2.2-.3.1-.7-2.4-2-10.4 1.8-9.7z" fill="#d19271" stroke-width="none" opacity="1" stroke="none"></path></g></g><g id="svga-group-ears-right-move" transform="matrix(1,0,0,1,0,0)"><g id="svga-group-ears-right"><path id="SvgjsPath11897" d="M138.7 90s2.5-2.4 5.4-3.5 6.1.7 7.1 3.7c1 2.9-1.3 15.1-5 19.5s-6.2 4.8-8.7 2.5c-2.5-2.3-7-10.8 1.2-22.2z" fill="#f0c7b1" stroke-width="none" opacity="1" stroke="none"></path><path id="SvgjsPath11898" d="M138.6 89.9c1.1-1 2.2-1.8 3.3-2.6.6-.4 1.2-.7 1.8-1.1.6-.3 1.3-.6 2-.6 1.4-.2 2.8.3 4 1.2.6.5 1.1 1.1 1.5 1.8l.3.6c.1.2.2.4.2.6.1.4.2.9.2 1.3.1 1.7-.2 3.3-.5 4.9s-.7 3.1-1.1 4.6c-.9 3-1.8 6-3.4 8.7-.4.7-.9 1.2-1.4 1.8-.5.6-1 1.1-1.6 1.6s-1.2.9-1.8 1.2c-.7.3-1.4.4-2.2.3-.7-.1-1.4-.4-2.1-.8-.3-.2-.6-.4-.9-.7-.3-.3-.6-.5-.8-.8-1-1.2-1.7-2.6-2.2-4.2s-.7-3.3-.7-4.9l.1-1.2c0-.4.1-.8.2-1.2.1-.8.4-1.6.6-2.4.3-.7.6-1.5.9-2.2.4-.7.7-1.4 1.1-2 .4-.6.8-1.3 1.2-1.9l1.3-2zm.1.1c-1.7 2.4-3 5.2-3.7 8.2-.3 1.5-.5 3-.4 4.5s.3 2.9.7 4.3 1.1 2.6 1.9 3.7c.4.5.8 1 1.4 1.3.5.4 1 .6 1.6.7 1.1.2 2.2-.3 3.3-1.1 1-.8 2.1-1.8 3-2.9 1.7-2.3 2.8-5.2 3.6-8.2.4-1.5.6-3.1.8-4.6s.3-3.1.1-4.6c0-.4-.1-.6-.2-.9-.1-.3-.3-.6-.4-.9-.3-.6-.7-1-1.2-1.5-.9-.8-2.1-1.3-3.3-1.4-.6 0-1.2.1-1.8.3-.6.2-1.2.5-1.8.8-1.4.6-2.5 1.4-3.6 2.3z" fill="#e1ac8f" stroke-width="none" opacity="1" stroke="none"></path><path id="SvgjsPath11899" d="M147.4 89.6c-3.3.6-5.4 6.1-6 9.8-.1.1-.1.2-.2.3-.4.6.4 1.2.8.6.5-.8 1-1.6 1.8-1.9 1.4-.5 2.1 1.1 1.8 2.6-.4 1.9-1.6 3-2.6 4.4-.1.1 0 .3.1.2 1.7-1 4.3-4.8 3.1-7.2-.9-1.7-2.3-1.4-3.4-.4.8-2.1 1.4-4.3 3-5.9.5-.5 1.5-1.4 2.2-1.3 1.3.2 1.3 2.1 1.3 3.4.1 1.7-.1 3.4-.4 5 0 .2.2.2.3.1.7-2.4 2-10.4-1.8-9.7z" fill="#d19271" stroke-width="none" opacity="1" stroke="none"></path></g></g><g id="svga-group-faceshape-wrap"><g id="svga-group-faceshape-single"><path id="SvgjsPath12241" d="M100 35.3c-22.5 0-41.9 16.4-43.2 46.4v.3c0 2.2-1.4 19.3.9 31.5 2.4 13.2-.3 25.4 12.2 32.1s26.8 7.6 30.1 7.6 17.5-.9 30.1-7.6 9.5-18.9 11.9-32.1c2.3-12.2 1.1-29.3 1.2-31.5v-.3c-1.3-29.9-20.7-46.4-43.2-46.4z" fill="#f0c7b1" stroke-width="none" opacity="1"></path><path id="SvgjsPath12242" d="M69.9 145.6c12.5 6.7 26.8 7.6 30.1 7.6s17.5-.9 30.1-7.6c12.6-6.7 9.5-18.9 11.9-32.1 2.3-12.2 1.1-29.3 1.2-31.5v-.3c-1.3-29.9-20.7-46.4-43.2-46.4S58.1 51.7 56.8 81.7v.3c0 2.2-1.4 19.3.9 31.5 2.4 13.2-.3 25.4 12.2 32.1zM58.5 95c.1-3.4.3-6.9.4-10.4 0-.9.1-1.7.1-2.7 0-.8.1-1.7.2-2.5l.2-2.5c.1-.8.2-1.7.4-2.5l.4-2.5c.1-.8.4-1.6.6-2.5l.6-2.5c.2-.8.5-1.6.8-2.4.3-.8.5-1.6.8-2.4l1-2.3c.6-1.6 1.5-3 2.2-4.5.4-.8.9-1.4 1.3-2.1.5-.7.9-1.4 1.4-2.1l1.6-2 .8-1 .9-.9 1.8-1.8c.6-.6 1.3-1.1 2-1.6 1.3-1.1 2.8-2 4.2-2.9 5.9-3.5 12.9-5.2 19.9-5.3 6.9.1 13.9 1.8 19.8 5.3 1.4 1 2.9 1.8 4.2 2.9.7.5 1.3 1.1 2 1.6l1.8 1.8.9.9.8 1 1.6 2c.5.7.9 1.4 1.4 2.1.4.7 1 1.4 1.3 2.1.8 1.5 1.6 2.9 2.2 4.5 0 0 1.5 3.9 1.8 4.7l1.2 4.9c.2.8.4 1.6.5 2.5 0 0 .7 4.2.7 5l.2 2.5s.1 2.3.1 2.4v2.7c.1 3.5.1 6.9.1 10.4-.1 3.4-.2 8.9-.6 12.2-.2 1.7-.4 3.4-.7 5-.1.8-.3 1.8-.4 2.6-.2.9-.2 1.8-.3 2.7-.4 3.6-.5 7.1-.8 10.4-.4 3.3-.9 6.6-2.4 9.2-1.4 2.7-3.6 4.8-6.4 6.4-2.9 1.6-6 3-9.2 4.1s-6.5 2-9.9 2.7c-3.3.7-6.8 1.2-10.1 1.4-3.4 0-6.8-.3-10.2-.8-3.4-.5-6.8-1.2-10.1-2.3-3.3-1-6.5-2.3-9.5-4-3-1.6-5.5-4-7.1-6.9-.4-.7-.7-1.5-1-2.3-.2-.8-.5-1.6-.7-2.4-.2-.8-.4-1.7-.5-2.5-.2-.8-.2-1.7-.3-2.5-.3-3.4-.4-6.9-.7-10.5-.1-1.7-.4-3.6-.6-5.3-.1-.8-.2-1.7-.3-2.5s-.2-1.7-.2-2.6c-.3-3.1-.3-8.6-.2-12z" fill="#c27b55" stroke-width="none" opacity="1"></path></g></g><g id="svga-group-mouth-single-move" transform="matrix(1,0,0,1,0,0)"><g id="svga-group-mouth-single"><path id="SvgjsPath12461" d="M86.62 127.55s2.05 2.59 5.62 4.12 13.46 4.37 22.92-4c0 0-1.83-1.01-4.25-2.59s-3.79-2.39-5.87-2.71-3.23.58-4.6.64c-1.37.05-2.88-.8-4.51-.66-3.58.3-9.36 4.5-9.36 4.5l.05.7z" fill="#da7c87" stroke-width="none" opacity="1" transform="translate(0 2)"></path><path id="SvgjsPath12462" d="M85.9 127.36c1.93 1.35 3.95.8 6.06.2 1.1-.31 1.84-.44 3.03-.4 1.4.05 1.65.32 2.77.82.84.37 1.64.61 2.55.48 1.07-.15 1.89-.82 2.89-1.19 2.34-.87 4.17.21 6.35.86 2.06.61 4.33 1.01 6.18-.31.5-.36.08-1.04-.47-.81-2.86 1.23-5.62-.26-8.45-.67-2.23-.32-3.49.46-5.64.81-2.45.4-4.48-1.02-6.92-1.03-2.61-.02-5.17 1.6-7.62 0-.78-.53-1.48.71-.73 1.24z" fill="#cb5f6c" stroke-width="none" opacity="1" transform="translate(0 2)"></path></g></g><g id="svga-group-eyes-left-move" transform="matrix(1,0,0,1,0,0)"><g id="svga-group-eyes-left"><g id="svga-group-eyesback-left"><path id="SvgjsPath12471" d="M90.4 96.5S89 94 86.9 92.3c-2.1-1.7-5.6-2.5-8.1-2.3-2.5.2-7.1 1.8-9.6 5.5 0 0 2.3 1.2 5.6 1.8 3.3.6 8.9 1.1 12 .4 3-.6 3.6-1.2 3.6-1.2z" fill="#ffffff" stroke-width="none" opacity="1"></path></g><g id="svga-group-eyesiriswrapper-left" transform="matrix(1,0,0,1,0,0)"><g id="svga-group-eyesiriscontrol-left" transform="matrix(1,0,0,1,0,0)"><g id="svga-group-eyesiris-left"><path id="SvgjsPath12007" d="M80.1 88.1c3 0 5.5 2.4 5.5 5.5S83.1 99 80.1 99s-5.5-2.4-5.5-5.5 2.4-5.4 5.5-5.4z" fill="#313339" stroke-width="none" opacity="1" stroke="none"></path><path id="SvgjsPath12008" d="M80.1 99.3c-3.2 0-5.7-2.6-5.7-5.7 0-3.2 2.6-5.7 5.7-5.7 3.2 0 5.7 2.6 5.7 5.7s-2.6 5.7-5.7 5.7zm0-11c-2.9 0-5.2 2.3-5.2 5.2s2.3 5.2 5.2 5.2 5.2-2.3 5.2-5.2c-.1-2.8-2.4-5.2-5.2-5.2z" fill="#11141a" stroke-width="none" opacity="1" stroke="none"></path><path id="SvgjsPath12009" d="M80.1 90.6c1.6 0 2.9 1.3 2.9 2.9s-1.3 2.9-2.9 2.9-2.9-1.3-2.9-2.9 1.2-2.9 2.9-2.9z" fill="#000000" stroke-width="none" opacity="1"></path><path id="SvgjsPath12010" d="M78.7 90.5c.6 0 1 .5 1 1s-.5 1-1 1-1-.5-1-1 .5-1 1-1zm3.4 4.7c.2 0 .4.2.4.4s-.2.4-.4.4-.4-.2-.4-.4.2-.4.4-.4z" fill="#ffffff" stroke-width="none" opacity="1"></path></g></g></g><g id="svga-group-eyesfront-left"><path id="SvgjsPath12479" d="M74.8 97.4c3.3.6 8.9 1.1 12 .4s3.6-1.3 3.6-1.3-1.4-2.5-3.5-4.2-5.6-2.5-8.1-2.3c-2.5.2-6.8 1.7-9.3 5.2v-.7c0-6.4 4.7-11.5 10.6-11.5s10.6 5.2 10.6 11.5S86 106 80.1 106c-5.5 0-10.1-4.6-10.6-10.5.6.5 2.6 1.4 5.3 1.9z" fill="#f0c7b1" stroke-width="none" opacity="1" stroke="none"></path><path id="SvgjsPath12480" d="M90.9 98c-3.6 2.6-8.4 4.1-12.9 3.7-.2 0-.2-.2 0-.2 4.7-.5 8.5-1.4 12.7-3.7.3-.2.4.1.2.2z" fill="#e1ac8f" stroke-width="none" opacity="1" stroke="none"></path><path id="SvgjsPath12481" d="M69.2 95.7c5.5 4.1 15.4 3.7 21.5 1.5.3-.1.5-.5.3-.8-4.8-9.2-16.2-9.3-22-1-.1.1.1.3.2.3zm10.9 1.9c-3.7-.2-7-1.3-10.5-2.2 5.7-6.8 15.6-6.8 20.2.9-3.2 1.1-6.4 1.5-9.7 1.3z" fill="#000000" stroke-width="none" opacity="1" stroke="none"></path></g></g></g><g id="svga-group-eyes-right-move" transform="matrix(1,0,0,1,0,0)"><g id="svga-group-eyes-right"><g id="svga-group-eyesback-right"><path id="SvgjsPath12472" d="M109.6 96.5s1.4-2.5 3.5-4.2c2.1-1.7 5.6-2.5 8.1-2.3 2.5.2 7.1 1.8 9.6 5.5 0 0-2.3 1.2-5.6 1.8-3.3.6-8.9 1.1-12 .4-3-.6-3.6-1.2-3.6-1.2z" fill="#ffffff" stroke-width="none" opacity="1"></path></g><g id="svga-group-eyesiriswrapper-right" transform="matrix(1,0,0,1,0,0)"><g id="svga-group-eyesiriscontrol-right" transform="matrix(1,0,0,1,0,0)"><g id="svga-group-eyesiris-right"><path id="SvgjsPath12011" d="M119.9 88.1c3 0 5.5 2.4 5.5 5.5S123 99 119.9 99s-5.5-2.4-5.5-5.5 2.5-5.4 5.5-5.4z" fill="#313339" stroke-width="none" opacity="1" stroke="none"></path><path id="SvgjsPath12012" d="M119.9 99.3c-3.2 0-5.7-2.6-5.7-5.7 0-3.2 2.6-5.7 5.7-5.7 3.2 0 5.7 2.6 5.7 5.7s-2.5 5.7-5.7 5.7zm0-11c-2.9 0-5.2 2.3-5.2 5.2s2.3 5.2 5.2 5.2 5.2-2.3 5.2-5.2c0-2.8-2.3-5.2-5.2-5.2z" fill="#11141a" stroke-width="none" opacity="1" stroke="none"></path><path id="SvgjsPath12013" d="M119.9 90.6c1.6 0 2.9 1.3 2.9 2.9s-1.3 2.9-2.9 2.9-2.9-1.3-2.9-2.9 1.3-2.9 2.9-2.9z" fill="#000000" stroke-width="none" opacity="1"></path><path id="SvgjsPath12014" d="M118.6 90.5c.6 0 1 .5 1 1s-.5 1-1 1-1-.5-1-1 .5-1 1-1zm3.4 4.7c.2 0 .4.2.4.4s-.2.4-.4.4-.4-.2-.4-.4.2-.4.4-.4z" fill="#ffffff" stroke-width="none" opacity="1"></path></g></g></g><g id="svga-group-eyesfront-right"><path id="SvgjsPath12482" d="M125.2 97.4c-3.3.6-8.9 1.1-12 .4s-3.6-1.3-3.6-1.3 1.4-2.5 3.5-4.2 5.6-2.5 8.1-2.3c2.5.2 6.8 1.7 9.3 5.2v-.7c0-6.4-4.7-11.5-10.6-11.5s-10.6 5.2-10.6 11.5S114 106 119.9 106c5.5 0 10.1-4.6 10.6-10.5-.6.5-2.6 1.4-5.3 1.9z" fill="#f0c7b1" stroke-width="none" opacity="1" stroke="none"></path><path id="SvgjsPath12485" d="M109.1 98c3.6 2.6 8.4 4.1 12.9 3.7.2 0 .2-.2 0-.2-4.7-.5-8.5-1.4-12.7-3.7-.3-.2-.4.1-.2.2z" fill="#e1ac8f" stroke-width="none" opacity="1" stroke="none"></path><path id="SvgjsPath12486" d="M131 95.4c-5.8-8.3-17.3-8.2-22 1-.2.3 0 .7.3.8 6.1 2.2 16 2.6 21.5-1.5.1 0 .3-.2.2-.3zm-20.8.9c4.6-7.7 14.5-7.7 20.2-.9-3.5.9-6.8 2-10.5 2.2-3.3.2-6.5-.2-9.7-1.3z" fill="#000000" stroke-width="none" opacity="1" stroke="none"></path></g></g></g><g id="svga-group-facehighlight-single"></g><g id="svga-group-eyebrows-left-move" transform="matrix(1,0,0,1,0,0)"><g id="svga-group-eyebrows-left-rotate" transform="matrix(1,1.7453292519943295e-9,-1.7453292519943295e-9,1,1.4396088943158247e-7,-1.3696939049623325e-7)"><g id="svga-group-eyebrows-left"><path id="SvgjsPath12581" d="M67.9 82.7c.4-.7.8-1.3 1.2-1.9.1-.3.2-.5.4-.8.3-.6.6-1.2 1.1-1.6.3-.6.9-1.2 1.3-1.7.6-.7 1.7-1.5 2.6-.9 0 0 .1 0 .1.1 1.2-.4 2.7-.5 3.9-.3 1.6.2 3.1.7 4.6 1.2 1.2.4 2.4.8 3.5 1.4.1-.1.3-.2.4-.1 1.1.1 2.3.4 3.1 1.3.1.1.1.1.1.2.3.1.6.2.8.4h.1c.3.1.7.3.9.6.8.3 1.4 1.3 1.7 2.1.4 1.1-.1 2.7-1.2 3.3 0 .1-.1.3-.2.4-.6.6-1.7.4-2.7 0h-.1c-3.3-1.1-6.5-2.6-9.6-4.3-1.4-.4-2.7-.9-4-1.3-.5-.2-1.3-.3-1.8-.6 0 .1-.1.2-.2.3-.7.3-1.4.6-2 .9-.4.2-.9.5-1.3.6-.1.2-.3.4-.4.6-.4.5-.9 1.4-1.6 1.6-.2.4-.4.8-.8.8-.2 0-.3 0-.4-.2-.3-.9.3-1.6.5-2.1z" fill="#2a232b" stroke-width="none" opacity="1"></path><path id="SvgjsPath12582" d="M89.8 86.1c.2-1.1.6-2.1.5-3.2-.1-1.2-.5-2.2-1-3.3-.1-.2.2-.5.4-.3 1.6 1.7 1.9 5.1.4 7-.1.1-.3 0-.3-.2zm1.5 0c.4-.7.8-1.5.9-2.3.1-.8-.1-1.5-.1-2.3 0-.2.2-.2.3-.1 1.1 1.4.4 3.8-.7 5-.2.2-.6-.1-.4-.3zM82 76.4c3 1.7 5.3 5.6 5.7 9 0 .2-.3.2-.4.1-.6-1.7-1.2-3.3-2.1-4.8-1-1.5-2.2-2.6-3.4-3.9-.4-.2-.1-.5.2-.4zm-4.6-.7c2.7 1.6 6.1 3.5 6.2 7 0 .3-.3.3-.4.1-.6-1.6-1.3-2.8-2.5-3.9-1.1-1-2.4-1.8-3.5-2.8-.2-.2 0-.5.2-.4zm-5.7 1.8c4.2-1.6 8 2.1 10.3 5.1.1.2-.2.4-.3.2-1.3-1.3-2.6-2.8-4.2-3.7-1.9-1.1-3.7-1-5.7-1.2-.3.1-.4-.3-.1-.4zm-4 4.7c1.2-1.3 2.8-1.9 4.5-2.3.2-.1.3.3.1.4-1.6.5-2.9 1.4-4.4 2.2-.2.1-.4-.2-.2-.3z" fill="#3a353a" stroke-width="none" opacity="1"></path><path id="SvgjsPath12583" d="M66.4 86c0 .2.3.4.4.2 0 0 .1 0 .1-.1 2.6-2.8 5.2-6.1 9.5-4.9 3.1.9 5.9 2.9 8.9 4.1 2.1.8 5.9 2.9 7.9.9 2-1.9.7-4.9-.6-6.8-.2-.3-.7 0-.5.3-.8-.8-1.7-1.5-2.6-1.7-.2-.1-.3.2-.3.3-.3-.2-.6-.3-.9-.4-.9-.5-1.9-1.1-3-1.4-.2-.1-.5.3-.3.5-2.4-1.1-5.2-2-7.9-2.3H76.8c-1.9-.2-3.7 0-5.3.7-.4.2-.3.6-.1.7-.2.1-.4.2-.6.4-.6.4-1.4 1-1.6 1.8 0 .1 0 .2.1.3-.5.6-.9 1.3-1.3 2.1-.5 1.4-1.7 3.6-1.6 5.3zm11.7-10.1c1.1.8 2.3 1.6 3.2 2.7 1.3 1.5 2 3.2 2.6 5-.1-.1-.2-.1-.4-.2-.8-2.1-2.2-3.9-4-5.3-1-.8-2.4-1.7-3.8-2.3.9 0 1.6 0 2.4.1zm13.1 10.2c.7-.8 1-2.1 1-3.1 0-1.2-.4-2.2-1.1-3.1.1 0 .2.1.3.1.6.6 1.2 1.2 1.7 1.8.5 1.3.6 2.7-.5 3.7-.3.4-.8.6-1.4.6zm-6.5-2.2c-.4-2-1.3-3.9-2.6-5.4-.6-.7-1.3-1.6-2.2-2.3 2.5.6 4.8 1.6 7.3 2.4.2.1.3-.1.3-.2.2.1.5.2.8.3.6.3 1.2.6 1.8.8.9 1.1 1.5 2.4 1.3 3.9-.1 1-.6 1.8-1 2.6-.1 0-.2 0-.3-.1.3-1.2.1-2.8-.5-3.8-.1-.2-.5-.1-.4.1l.3 2.1v1.4c-.8-.2-1.6-.6-2.2-.8-1-.2-1.8-.6-2.6-1zm-12.9-3.3c-1.5.7-2.8 1.8-3.8 3.1.2-.7.4-1.3.7-2 .8-1.8 1.8-3.2 3.1-4.6.1-.1.1-.2 0-.2.6-.3 1.2-.6 1.7-.9h.2c.9.4 1.8.6 2.7 1 1 .5 1.9 1.1 2.8 1.8 1.4 1.2 2.5 2.6 3.4 4.2-1.4-.7-2.8-1.4-4.2-2-1-.4-2.1-.8-3.2-.9-1.4-.9-3.2-1.3-4.7-.5-.2.1-.1.4.1.4.9-.1 1.8-.1 2.7.1-.5.1-1 .2-1.5.5z" fill="#1b141c" stroke-width="none" opacity="1"></path></g></g></g><g id="svga-group-eyebrows-right-move" transform="matrix(1,0,0,1,0,0)"><g id="svga-group-eyebrows-right-rotate" transform="matrix(1,1.7453292519943295e-9,-1.7453292519943295e-9,1,1.4379463664226932e-7,-2.1214947309999843e-7)"><g id="svga-group-eyebrows-right"><path id="SvgjsPath12584" d="M132 82.8c-.4-.7-.8-1.3-1.1-2-.1-.3-.2-.5-.4-.8-.3-.6-.6-1.2-1.1-1.6-.3-.6-.9-1.2-1.3-1.7-.6-.7-1.7-1.6-2.6-1 0 0-.1 0-.1.1-1.2-.4-2.7-.5-3.9-.4-1.6.2-3.1.7-4.7 1.2-1.2.4-2.4.7-3.5 1.3-.1-.1-.3-.2-.4-.1-1.1.1-2.3.4-3.1 1.3-.1.1-.1.1-.1.2-.3.1-.6.2-.8.4h-.1c-.3.1-.7.3-.9.6-.8.3-1.4 1.3-1.7 2.1-.4 1.1.1 2.7 1.1 3.3 0 .1.1.3.2.4.6.6 1.7.4 2.7 0h.1c3.3-1.1 6.6-2.5 9.6-4.2 1.4-.4 2.7-.9 4-1.3.5-.2 1.3-.3 1.9-.6 0 .1.1.2.2.3.7.3 1.4.6 2 .9.4.2.9.5 1.3.6.1.2.3.4.4.6.4.5.9 1.4 1.6 1.6.2.4.4.8.8.8.1 0 .3 0 .4-.1.4-.6-.2-1.4-.5-1.9z" fill="#2a232b" stroke-width="none" opacity="1"></path><path id="SvgjsPath12585" d="M110.1 86.1c-.2-1.1-.5-2.1-.5-3.2.1-1.2.5-2.2 1-3.3.1-.2-.2-.6-.4-.3-1.7 1.7-2 5.1-.4 7 .1 0 .4-.1.3-.2zm-1.4-.1c-.4-.7-.8-1.5-.9-2.3-.1-.8.1-1.5.1-2.3 0-.2-.2-.2-.3-.1-1.1 1.4-.4 3.8.7 5 .2.1.5-.1.4-.3zm9.4-9.6c-3 1.7-5.4 5.5-5.7 8.9 0 .2.3.3.4.1.6-1.6 1.2-3.3 2.2-4.7 1-1.5 2.2-2.6 3.5-3.8.1-.3-.1-.7-.4-.5zm4.5-.7c-2.7 1.6-6.1 3.5-6.3 6.9 0 .3.3.3.4.1.6-1.6 1.3-2.8 2.6-3.9 1.1-1 2.4-1.8 3.6-2.7.2-.2-.1-.5-.3-.4zm5.8 1.9c-4.2-1.6-8 2.1-10.4 5-.1.2.2.4.3.2 1.3-1.3 2.6-2.7 4.3-3.7 1.9-1.1 3.7-1 5.7-1.1.3.1.3-.3.1-.4zm3.9 4.7c-1.1-1.3-2.8-2-4.5-2.3-.2-.1-.3.3-.1.4 1.6.5 2.9 1.4 4.3 2.2.3.1.4-.2.3-.3z" fill="#3a353a" stroke-width="none" opacity="1"></path><path id="SvgjsPath12586" d="M131.8 80.8c-.4-.7-.8-1.4-1.3-2.1.1-.1.1-.2.1-.3-.1-.8-1-1.4-1.6-1.8-.2-.1-.4-.3-.6-.4.3-.2.3-.6-.1-.7-1.6-.7-3.4-.9-5.2-.7H122.8c-2.7.2-5.5 1.2-7.9 2.2.2-.2-.1-.5-.3-.5-1 .2-2 .9-3 1.3-.3.1-.6.3-.9.4.1-.2-.1-.4-.3-.3-.9.2-1.9.9-2.6 1.7.2-.4-.3-.7-.5-.3-1.3 1.9-2.6 4.8-.7 6.8 2 2 5.8 0 7.9-.8 3-1.2 5.8-3.2 9-4.1 4.3-1.2 6.9 2.1 9.5 5l.1.1c.2.2.4 0 .4-.2.1-1.7-1-3.9-1.7-5.3zm-7.6-5c-1.4.5-2.8 1.4-3.8 2.2-1.8 1.4-3.2 3.2-4 5.3-.1.1-.2.1-.4.2.6-1.8 1.4-3.5 2.7-5 .9-1.1 2.1-1.8 3.3-2.7h2.2zm-16.9 9.6c-1.1-1-.9-2.4-.4-3.7.6-.6 1.1-1.2 1.7-1.8.1 0 .2-.1.3-.1-.7.9-1.1 1.9-1.1 3.1 0 1 .2 2.2.9 3.1-.5 0-1-.2-1.4-.6zm5.5-.5c-.6.2-1.4.6-2.2.8 0-.4-.1-.9 0-1.4.1-.7.3-1.4.3-2.1 0-.2-.3-.3-.4-.1-.7.9-.8 2.5-.6 3.8-.1 0-.2 0-.4.1-.4-.9-.9-1.6-1-2.7-.1-1.4.4-2.8 1.4-3.8.6-.3 1.2-.6 1.8-.8.2-.1.5-.2.8-.3 0 .1.1.3.3.2 2.5-.7 4.8-1.7 7.3-2.3-.8.7-1.6 1.5-2.2 2.3-1.3 1.6-2.2 3.4-2.6 5.4-.8.3-1.6.6-2.5.9zm13.9-4.7c.8-.2 1.7-.2 2.7-.1.2 0 .3-.3.1-.4-1.5-.8-3.3-.4-4.7.5-1.1.1-2.2.4-3.2.9-1.4.6-2.8 1.3-4.2 2 .9-1.6 2-3 3.5-4.2.9-.7 1.8-1.3 2.8-1.8.9-.4 1.8-.6 2.7-1h.2c.6.3 1.2.6 1.7.9 0 .1-.1.2 0 .2 1.3 1.4 2.4 2.8 3.1 4.6.2.6.4 1.3.6 2-1-1.3-2.2-2.5-3.8-3.2-.5-.2-1-.4-1.5-.4z" fill="#1b141c" stroke-width="none" opacity="1"></path></g></g></g><g id="svga-group-beardwrap"><g id="svga-group-beard-single-move" transform="matrix(1,0,0,1,0,0)"><g id="svga-group-beard-single"><path id="SvgjsPath11850" d="M145.5 112.7c-.3-5.3.2-17.7-4-18.7-4.1-.9-5.4 7.3-6.8 15.4s-2.9 15.7-8.2 14.8c-5.3-.9-1.6-5.2-5.4-7.4-3.8-2.3-11.2.3-14 1.5-2.8 1.2-9.1 1.5-14.2-.3s-11.9-2.3-14.2.3-.6 4.4-3.2 6.1-7.7-.8-8.7-6.1-1.2-13.5-1.9-17.1c-.6-3.6-1.7-7.4-4-7.4-3.7 0-5.4 4.9-5.9 8.7-.5 3.8-1 17.5 0 22.2.5 2.9.8 9.1 5.1 13.9s22.4 19.2 29.5 21.8 13.5 2.4 19.9.5c6.3-1.8 26.4-16.8 30.3-22.5 7.3-9.4 6-20.5 5.7-25.7zm-29 20c-3.5 6.6-7.6 7.3-9.3 7.8s-2.6-.4-2.6-1.6 0-2.1-.6-2.1-6.4-.2-7.4-.2-.8.6-.9 2.3c-.1 1.6-1.9 2-4.3 1s-7.2-6.9-8.6-11.5-1.2-5.4.6-4.9c.9.2 4.7 1.2 7.9 1.4s7.2-.2 8.6-.8c1.4-.5 6 .9 9.3.8s6.8-1.1 8.7-1.8c1.9-.8 2 3.2-1.4 9.6z" fill="#2a232b" stroke-width="none" opacity="1"></path><path id="SvgjsPath11851" d="M55.4 118.9c0-.1-.1-.1-.1 0-.2.8-.3 1.6-.5 2.4.3-4.3.5-8.7.8-13 0-.2-.2-.2-.3-.2.3-1.9.6-3.8.8-5.8 0-.3-.4-.4-.5-.1-.2.8-.4 1.5-.5 2.3.5-3 .9-7.7 3.6-9.4.2-.1.1-.4-.2-.4-1.4.4-2 1.6-2.4 2.9-.8 2.3-1.2 4.8-1.3 7.2 0 .1.2.2.2 0v-.1c-.4 2.2-.5 4.6-.5 6.8-.6 4-.8 8.2-.3 12 0 .2.2.2.3.1-.1 2.1.2 4.3 1.1 6.3.1.3.5.1.4-.1-.8-3.7-1.4-7.2-.6-10.9zm3 13.9c0-.2-.2-.2-.3-.1-.2-2.1-.4-4.1-.1-6.2 0-.3-.5-.4-.5-.1-.5 2.7-.5 5.5.4 8.1.1.2.5.2.4-.1v-.1c.5 2 1.2 4 2.6 5.5.2.2.5-.1.4-.3-1.3-2.3-2.4-4.3-2.9-6.7zM83 156.9c-2.6-2.6-5.1-5.2-7.2-8.3-.1-.1-.2 0-.2.1 1.8 3.2 4 6.3 7 8.5.3.2.6-.1.4-.3zm-4.2-2.7v-.1c-.4-.5-.9-1-1.3-1.6-.3-.5-.5-1.2-.8-1.7-.1-.1-.2-.1-.3.1-.1.5.1 1.1.4 1.6-2.3-1.8-4.9-3.5-6.2-6.2-.1-.2-.3-.1-.3.1.2.4.4.8.7 1.2-2.2-2-4.5-3.9-6.6-6.1-.2-.2-.5 0-.3.2.5.6 1.1 1.2 1.7 1.8-2.2-2-4.1-4.1-6-6.4-.1-.1-.3 0-.2.2 2 3 4.1 6.3 7.4 7.9.1.1.2 0 .3-.1 1.3 1.3 2.8 2.5 4.4 3.4h.1c1.7 2.2 4.1 3.8 6.4 5.4.1.1.2.1.2.2.1.1.2.2.4.2 0 .2.2.1 0-.1 0 .1 0 0 0 0zm6.1 1.5c-.2-.2-.4 0-.4.2-1.6-1.4-3.3-2.9-4.8-4.4-.2-.2-.6.1-.4.4 2.8 3 5.8 6.1 9.2 8.4.2.2.5-.2.3-.4l-.6-.6c1.7 1.4 3.6 2.6 5.6 3.1.1 0 .2-.1.1-.2-2.9-2.3-6.2-4-9-6.5zm7.9 4.7c-.3-.2-.7.3-.3.5 1.7.8 3.7 1.9 5.6 1.7.2 0 .4-.3.1-.4-1.7-.8-3.6-1-5.4-1.8zm13.9.2c-2.4.5-4.5 1.4-7 1.5-.4 0-.5.5-.1.6 1.2.3 2.3-.1 3.4-.4 1.3-.4 2.6-.9 3.8-1.5.1 0 0-.2-.1-.2zm4.9-1.4c-2.1 1.2-4 2.6-6.4 2.8-.2 0-.2.3 0 .3 2.5-.2 4.7-1.4 6.6-2.9.1-.1 0-.3-.2-.2zm5.9-4.3c-1.2.9-2.4 1.9-3.6 2.8-1.3 1.1-2.8 2.5-4.3 3.3-.2.1-.1.5.2.4 1.4-.4 2.6-1.5 3.7-2.4 1.5-1.2 3-2.4 4.3-3.7.1-.3-.1-.6-.3-.4zm26.8-53c-.2-2.2-.8-4.2-1.4-6.3-.1-.2-.5-.2-.4.1.5 2.1.9 4.2 1.5 6.2.1.2.3.2.3 0zm.5.7c0-.2-.4-.1-.3 0 .2 2.3.5 4.7.9 7-.1-.1-.3 0-.3.1 0 3.8-.1 7.6 0 11.3-.2 2.8-.5 5.6-.9 8.3 0 .2.3.3.3.1.8-2.9 1.1-5.9 1.2-8.8.3-3.4.2-6.8-.2-10.2.2.8.4 1.5.6 2.2.1.2.4.1.4-.1-.5-3.2-1.2-6.6-1.7-9.9zm-1.6 25.2c0-.2-.2-.2-.3 0-.2 1-.2 2.1-.4 3.1-1.3 3-3 5.4-5 7.9.2-.3.3-.6.5-1 .1-.2-.2-.4-.4-.2-1.1 1.7-2.3 3.4-3.4 5-.1-.2-.4-.3-.6-.1-2 2.4-4.3 4.5-6.4 6.8 0-.1-.1-.3-.3-.2-2.3 1.3-4.4 3-6.4 4.8h-.2c-2.4 1.6-4.7 3.6-6.9 5.5-.1.1 0 .3.2.2 1.9-1.4 3.9-2.8 5.7-4.3.1 0 .2.1.2 0 2.5-1.8 5.1-3.6 7.4-5.7-.2.2.1.5.3.3 2.3-1.6 4.3-3.8 6.1-6-.2.2-.3.5-.5.7v.1l-.6.6c-.2.3-.5.6-.6 1 0 .1.1.2.2.1.4-.2.6-.6.9-.9.2-.2.3-.4.5-.6 1.4-1.3 2.6-2.9 3.6-4.6h.3c.8-.6 1.6-1.4 2.2-2.2-.1.2-.2.3-.3.5-.6.9-1.4 1.7-2.1 2.6-.4.4-.8.9-1.2 1.3-.9.8-1.8 1.6-2.5 2.5-.2.2.1.5.3.3.9-.9 1.8-1.8 2.8-2.7.6-.6 1.2-1.2 1.6-1.9 1.3-1.2 2.4-3 2.8-4.7.3-.6.6-1.1.9-1.7.5-1 1-2.1 1.3-3.1 0-.1 0-.2.1-.3 0-.1 0-.1.1-.2v-.1c.1-.8.1-1.8.1-2.8zm-58.8-4.9c-.4-.1-.9-.1-1.4-.2-1-.1-1.9-.4-2.9-.3-.2 0-.3.3-.1.4 1 .6 2.4.8 3.8.9 1.7.5 3.6.7 5.4.7 0 .1 0 .2.1.2 3.6 1 8.1.6 11.6-1 4.1 1.6 9.1 1.5 13.4.5 2.2.2 4.5-.5 6.4-1.4.3-.1.1-.5-.2-.4-2 .4-3.8 1.1-5.8 1.2h-.1c-.2 0-.5-.1-.7-.1-2.8-.4-5.5-1.2-8.2-2.4-.2-.1-.4.2-.2.3 1.5.8 3.1 1.5 4.8 2-3.5.1-7.1.6-10.4-1.2-.2-.1-.3.2-.2.3.5.3 1.1.6 1.6.8h-.1c-.2.1-.3.1-.5.1-.1 0-.2 0-.2.1-3.1.8-5.9 1.2-9.1 1.2 2-.2 4-.5 5.8-1 .2 0 .1-.3 0-.3-2.7.2-5.2.4-7.8.4 3.5-.3 7-1.3 10.1-3 .2-.1.1-.4-.2-.4-4.9 1.8-9.7 2.7-15 2.8.2-.3.2-.2.1-.2zm26.4.7c-3.1.2-6 .4-9.2-.4.1-.1.1-.2 0-.3 2.8 1 6 .8 9.2.7zm-51.3-23c-1 2.4-1.8 4.9-1.6 7.6 0 .1 0 .1.1.1-.5 1.1-.7 2.3-.4 3.6 0 .2.3.2.3-.1 0-1.4.1-2.8.7-4.1.1-.2-.2-.4-.3-.2.3-2.4.7-4.7 1.5-6.9 0 0-.3-.1-.3 0zm-1.2 11.2c-1.2 2.9-1.9 6.1-1.4 9.3 0 .1.1.2.2.2 0 .7 0 1.4.2 2.1.1.3.4.2.5-.1.1-1.9.2-3.8.4-5.6 0-.3-.4-.3-.5-.1 0 .1-.1.3-.1.4.2-2 .4-4.1 1-6.1 0-.2-.3-.3-.3-.1zm.6 10.4c-.1 1.7-.2 3.4-.1 5 0 .2.4.3.4.1.2-1.7.2-3.4.2-5.1 0-.3-.5-.3-.5 0zm7.3 11.4c.4 1.5.8 2.9 1.3 4.4 0 .1.1 0 .1 0-.3-1.5-.8-2.9-1.1-4.4-.1-.2-.3-.2-.3 0zm2.4 3.2c.2 1.5.6 3.1 1.5 4.4.1.1.3.1.3-.1-.5-1.5-1.1-2.9-1.4-4.4-.1-.2-.5-.1-.4.1zm4.8 7.7c-.6-1.9-1.5-3.6-2.1-5.5-.1-.3-.5-.1-.4.1.5 1.9 1.1 3.9 2.2 5.5.1.2.4.1.3-.1zm2.4 2c.1.1.3.1.3-.1-.4-1.1-1-2.2-1.5-3.3-.1-.3-.5 0-.4.2.5 1.1.9 2.3 1.6 3.2zm2.3 2.4c.1.1.3.1.3-.1-.4-1.2-1.1-2.3-1.8-3.3-.1-.2-.5 0-.4.2.7 1 1.2 2.2 1.9 3.2zm3-.8c.4 1.5 1 3 2.1 4.2.2.2.4 0 .3-.2-.7-1.4-1.6-2.6-2.1-4-.1-.2-.3-.2-.3 0zm5.5 7c.1.1.3-.1.2-.2-1-1.2-2.1-2.4-2.9-3.8-.1-.2-.4 0-.3.2.8 1.4 1.7 2.8 3 3.8zm2.4 1.3c.1.1.3 0 .2-.2-.7-1-1.7-1.9-2.5-2.9-.2-.2-.5.1-.3.3.8 1 1.6 2 2.6 2.8zm2.7 1.3c.1.1.2 0 .2-.1-.6-.9-1.5-1.8-2.2-2.6-.2-.2-.5.1-.3.3.7.8 1.4 1.7 2.3 2.4zm3.1 1.6c.1 0 .3-.1.1-.2-.5-.4-1-.7-1.5-1.2-.2-.2-.5.1-.3.3.6.4 1.1.9 1.7 1.1zm-31.9-30.4c.2 1.8.8 3.3 1.8 4.9.1.2.4 0 .3-.2-.9-1.4-1.5-3-1.9-4.7 0-.1-.2-.1-.2 0zm-.4 1.3c.2.7.5 1.4.9 2 .1.2.4 0 .3-.2-.5-1-.9-2-1.3-3.1 0-.1-.3-.1-.2.1 0 .2.1.4.1.5-.6-1.3-1-2.7-1.2-4.1 0-.1-.2-.1-.2 0 .1 1.7.6 3.2 1.4 4.7 0 .2.1.2.2.1zm43.8 28.8c1.4-1.1 2.8-2.4 3.6-4 .1-.1-.1-.3-.2-.2-1.2 1.4-2.2 2.8-3.7 4-.1.1.1.3.3.2zm2.6-1.6c.4-.4.8-.9 1.1-1.3.3-.4.7-1 .8-1.5.1-.2-.3-.4-.4-.2-.3.4-.5.9-.8 1.4-.3.5-.7.9-1.1 1.3-.1.2.2.5.4.3zm2.1-1.2c.8-.7 1.7-1.7 1.9-2.7 0-.1-.2-.3-.3-.2-.7.9-1.2 1.8-1.9 2.6-.1.3.1.5.3.3zm2.6-1.6c.6-.6 1.2-1.3 1.7-2 .2-.3-.2-.5-.4-.3-.6.6-1.2 1.2-1.7 1.8-.4.3.1.8.4.5zm10-7.5c.6-.3.8-1 1.1-1.6.3-.7.5-1.5.6-2.3 0-.2-.3-.2-.3 0-.3.7-.6 1.5-.9 2.2-.2.5-.6 1-.6 1.6-.1 0 0 .1.1.1zm2.1-1.7c.6-.8.7-2 1-2.9.1-.3-.4-.5-.5-.1-.3.9-.8 2-.8 3-.1.1.2.2.3 0zm1.5-1.3c.6-.8.7-2.1.8-3 0-.2-.4-.3-.4-.1l-.3 1.5c-.1.5-.3.9-.4 1.4-.1.2.1.3.3.2zm1.2-1.2c.5-.6.6-1.6.5-2.3 0-.3-.5-.3-.5 0 0 .4 0 .7-.1 1.1-.1.3-.2.6-.3 1-.1.1.2.3.4.2zm3.2-3.4c.6-1 .5-2.7.6-3.8 0-.1-.2-.1-.2 0-.1.7-.2 1.4-.4 2.1-.1.5-.3 1.1-.2 1.6-.1.2.1.2.2.1zm1.7-2.2c.2-.4.1-.9.2-1.4 0-.5.1-1.1.1-1.6 0-.2-.4-.2-.4 0-.1 1-.4 2.1-.2 3.1.1.1.3.1.3-.1zm1-1.1c.3-.3.2-.8.3-1.2v-1.6c0-.3-.5-.3-.5 0v1.5c0 .4-.2.9 0 1.3 0 .1.1.1.2 0zm1.1-1.5c.4-.8.4-1.8.2-2.6-.1-.2-.4-.1-.3.1.1.8 0 1.6-.1 2.4 0 .2.2.3.2.1zm6.5-23.5c.1 2.8.1 5.7.2 8.5 0 .2.2.1.2 0 .2-2.9.2-5.7 0-8.5 0-.2-.4-.2-.4 0zm-.6 10.8c0 .2.3.2.3 0 .4-1.5.3-3.1.1-4.7 0-.3-.4-.3-.4 0 .1 1.6.1 3.1 0 4.7zm-2.2 6.4c.5-.8.9-1.8 1-2.8v.2c0 .2.3.3.4.1.6-1.6.6-3.4.5-5.1 0-.3-.5-.3-.5 0 .1 1.2-.1 2.3-.2 3.4.1-.5.1-1 .1-1.4 0-.3-.5-.3-.5 0-.1 1-.2 2-.4 2.9-.2.8-.6 1.7-.7 2.5-.1.2.2.4.3.2zm-1.4 1.2c.7-1.1.9-2.5 1.1-3.7 0-.3-.4-.4-.4-.1-.2 1.3-.7 2.4-1.1 3.7 0 .2.3.3.4.1zm-1 .6c.5-1.1.6-2.3.9-3.4.1-.3-.4-.5-.5-.1-.3 1.1-.7 2.3-.8 3.5 0 .1.3.2.4 0zM90.3 153c-.8-1.8-1.5-3.6-1.9-5.5-.1-.3-.5-.2-.4.1.4 2 1 3.8 2.1 5.5.1.2.2.1.2-.1zm2.2 2.3c.5.9 1.1 1.7 1.9 2.4.1.1.3 0 .2-.2-1.2-1.7-2.3-3.4-3.1-5.3-.1-.2-.4-.1-.3.1.2.7.5 1.3.8 1.9-.8-1.3-1.6-2.5-2.1-3.9-.1-.2-.4-.1-.3.1.6 1.7 1.4 3.6 2.7 4.9 0 .1.1.1.2 0zm4 4.5c.2.1.3-.1.2-.2-.7-1.1-1.6-2-2.2-3.2-.1-.2-.4-.1-.3.1.5 1.1 1.2 2.5 2.3 3.3zm1.8.7c-.5-.9-1.1-1.8-1.6-2.7-.1-.2-.5 0-.4.2.5.9 1.1 1.9 1.9 2.6 0 0 .1 0 .1-.1zm1.2-.4c-.3-.5-.6-.9-.8-1.5-.1-.2-.4-.1-.3.1.2.6.4 1.1.8 1.6.2 0 .4-.1.3-.2zm-16.4-18.7c.3 1.6.8 3.3 1.8 4.7.1.1.4.1.3-.1-.6-1.5-1.3-3-1.7-4.6-.1-.4-.4-.3-.4 0zm1.3 4.6c-.5-1.6-1.3-3.1-2-4.7-.1-.1-.3 0-.2.1.6 1.6 1.2 3.2 1.9 4.7.1.2.3.1.3-.1zm-.9.4c-1.1-2-2.3-3.9-3.2-6-.1-.1-.3 0-.3.1.9 2.1 1.8 4.2 3.2 6.1.1.2.4 0 .3-.2zm-2.8-1.7c-.5-1.7-1.3-3.3-2.2-4.9-.1-.1-.3 0-.2.1.8 1.6 1.4 3.3 2.2 4.9 0 0 .2 0 .2-.1zm-2.9-2.8c-.4-1.3-.9-2.5-1.4-3.8-.1-.2-.5-.1-.4.1.5 1.3 1 2.6 1.6 3.8.1.1.2 0 .2-.1zM62 108.1c.2-1.1.3-2.2.5-3.3.2-1 .5-1.9.6-2.9 0-.2-.2-.2-.3-.1-.8 1.8-1.2 4.2-1.1 6.2 0 .2.3.3.3.1zm.8 2.8c0 .4-.1.8-.1 1.2.1-1.7.1-3.4.3-5.1 0-.2-.3-.2-.3 0-.2 1.8-.4 3.7-.3 5.5 0 .2.2.2.2 0-.1 1.3-.1 2.7.2 4 0 .1.2.1.2 0 0-1.8-.1-3.6.1-5.5.1-.3-.3-.4-.3-.1zm1.3 10.1c-.2-1.9-.3-3.7-.1-5.5 0-.2-.3-.2-.3 0-.3 1.8-.3 3.8.2 5.6-.1.1.2.1.2-.1zm2 4.5c-.6-2.1-1.2-4.1-1.4-6.4 0-.2-.3-.2-.3 0 0 2.2.2 4.5 1.4 6.5.1.1.3 0 .3-.1zm1.3.8c-.3-.7-.7-1.4-1-2.1-.1-.2-.4-.1-.4.1.2.7.5 1.7 1.1 2.2.1.1.4 0 .3-.2zm1.6 1.1c.1.1.3 0 .3-.2-.3-.8-.9-1.6-1.4-2.3-.1-.2-.5 0-.4.2.5.8.9 1.6 1.5 2.3zm9.1 3.6c-.2-1.1-.5-2.2-.8-3.3-.1-.2-.1-.5-.2-.7-.1-.3-.1-.6-.2-.9 0-.2-.3-.1-.2.1.2 1.6.5 3.4 1.1 4.9.1.1.4.1.3-.1zm.9-1.5c-.3-1.8-.7-3.6-.9-5.5 0-.3-.5-.3-.4 0 .2 1.9.4 3.8 1.1 5.6 0 .1.2.1.2-.1zm.1-2.5c.3 3.3 1.3 6.6 3.2 9.3.1.2.5 0 .3-.2-1.6-3-2.7-5.8-3.2-9.2.1-.1-.3-.1-.3.1zm6.5 13.6c-1-1.9-2.1-3.7-2.9-5.6-.1-.2-.4 0-.3.2.9 1.9 1.8 3.9 3 5.6 0 .1.3 0 .2-.2zm35.1-18c0 .4.1.8.1 1.3.1 1.8.1 3.6.1 5.5 0 .1.2.1.2 0 .5-2.3.3-4.6 0-6.8 0-.2-.4-.2-.4 0zm-.2 9.2c.4-2.2.2-4.4 0-6.6 0-.2-.4-.2-.4 0 .2 2.2 0 4.3.1 6.5 0 .2.3.3.3.1zm-.7-2.7c-.4 1.8-1 3.5-1.5 5.3-.1.2.2.3.3.1.8-1.6 1.3-3.5 1.6-5.3 0-.3-.4-.4-.4-.1zm-5.5 8.7c-.8 1.8-1.7 3.6-2.3 5.4-.1.2.2.3.3.1.9-1.8 1.6-3.6 2.3-5.4.1-.1-.2-.2-.3-.1zm-4.5 7.6 1.2-2.4c.1-.2-.2-.3-.3-.1-.4.8-.7 1.6-1.1 2.4 0 .1.2.1.2.1zm-.5-2.6c-.7 1.9-1.6 3.8-2.6 5.6-.1.2.2.3.3.2 1.2-1.7 2.1-3.6 2.7-5.6.1-.4-.3-.5-.4-.2zM94 151.3c-.7-2.1-1.4-4.2-1.8-6.4 0-.2-.4-.1-.3.1.4 2.2.9 4.4 1.9 6.4-.1.2.2 0 .2-.1zm2.8 3.3c-.9-1.7-1.7-3.3-2.1-5.1-.1-.3-.5-.2-.4.1.4 1.8 1.1 3.7 2.3 5.2.1.2.3 0 .2-.2zm2.6 2.2c-.5-1-1-1.9-1.5-2.9-.1-.3-.6-.1-.4.1.4 1 .9 2.1 1.7 2.9.1.2.2 0 .2-.1zm5.5-4.5c-.2.9-.3 1.8-.4 2.7 0 .1.2.1.2 0 .3-.8.4-1.7.6-2.6.1-.3-.4-.4-.4-.1zm1.5 1.1c0 .8-.2 1.5-.2 2.3 0 .2.3.3.4.1.4-.7.4-1.6.4-2.4 0-.4-.6-.4-.6 0zm-25.2-32.3c4.8 1 9.8-.1 14.4-1.6.2-.1.1-.4-.1-.3-4.8 1-9.3 2-14.3 1.7-.2-.1-.2.2 0 .2zm-3.1 0c1.1-.9 2.2-1.8 3.5-2.4.2-.1.1-.3-.1-.3-1.4.5-2.8 1.3-3.6 2.5-.1.2.1.3.2.2zm27.7-1.6c3.1-.1 6-1.3 9.1-1.2.1 0 .1-.2 0-.2-3.1-.3-6.1.6-9.1 1.2-.2 0-.2.2 0 .2zm18.2 10.7c-.5-3.7-1.1-7.4-1.4-11.1 0-.2-.3-.2-.3 0 .2 3.7.3 7.6 1.3 11.2.1.3.4.2.4-.1zm-2.8 3.2c-.9 2.1-1.2 4.3-2.2 6.3-.1.2.1.4.3.2 1.5-1.9 1.6-4.2 2.4-6.4.1-.3-.4-.4-.5-.1zm-5.7 13.8c1.1-2.3 1.9-4.7 2.5-7.2.1-.3-.4-.5-.5-.1-.6 2.4-1.4 4.8-2.3 7.2-.1.1.2.2.3.1zM78.2 136c-.4-2.2-1.1-4.3-1.8-6.4-.1-.3-.6-.2-.5.1.6 2.2 1.1 4.3 2 6.4.1.2.4.1.3-.1zm.1-1.5c1 2.1 1.9 4.2 3.2 6.2.1.2.5.1.4-.2-.9-2.1-2.2-4.1-3.3-6.2-.1-.1-.4 0-.3.2z" fill="#1b141c" stroke-width="none" opacity="1"></path></g></g></g><g id="svga-group-mustache-single-move" transform="matrix(1,0,0,1,0,0)"><g id="svga-group-mustache-single"><path id="SvgjsPath12078" d="M73.9 130.6c-.2.1 9.4-16 25.9-15.3s23.3 9.9 27.2 16c0 0-3.8-1.3-4.8-1.7s-3.8-4.4-3.8-4.4 1.6 3.3 1.7 3.7c.1.4-4.1-1.1-6-2.3-1.9-1.2-3.6-3.5-3.6-3.5l1.9 3.6s-4.3-.8-5.5-1.3c-1.2-.5-3.1-3.4-3.1-3.4l1.6 3.1s-1.6.2-2.3-.3-1.5-3.1-1.5-3.1.1 2.9-.2 3c-.3.2-2.9.7-2.9.7l1-3s-1.2 2.9-1.9 3-4.6.6-6.2 1-4.3.9-5.2 1.2c0 0 .5-2.6 1-3.7 0 0-1.8 2.7-2.6 4.2 0 0 .6-3 .9-3.8 0 0-1.7 2.2-2.4 3.7 0 0-.5.6-3.1 1.3-2.8.6-3.8.5-6.1 1.3z" fill="#2a232b" stroke-width="none" opacity="1"></path><path id="SvgjsPath12079" d="M104.3 117c1.7 2.4 3.2 4.8 4.6 7.4.1.1.2 0 .2-.1-1-2.7-2.6-5.4-4.5-7.5-.1-.1-.3 0-.3.2zm2.7 1.2c-.1-.1-.3 0-.2.2 1 1.3 1.9 2.7 2.9 4 .1.1.2 0 .2-.1-.9-1.5-1.9-2.8-2.9-4.1zm1.5-.1c-.2-.1-.4.1-.2.2 1.4 1.4 2.6 2.8 3.8 4.3.9 1.2 1.7 2.6 2.7 3.8.1.1.2 0 .2-.1-1.4-3.1-4.1-5.9-6.5-8.2zm3.1 1.4c-.2-.2-.4.1-.3.3 2 2.1 3.6 4.3 5.3 6.6.1.1.3 0 .2-.2-1.3-2.5-3.3-4.7-5.2-6.7zm2.8 1.1c-.1-.1-.2 0-.2.1 1.2 1.6 2.3 3.2 3.4 4.9.1.1.3 0 .2-.1-.9-1.8-2.1-3.4-3.4-4.9zm7 6.1c-1.1-2.1-3-3.8-4.9-5.1-.1-.1-.3.1-.2.2 1.9 1.5 3.3 3.2 4.8 5.1.2.2.4 0 .3-.2zm-17.1-9.1c.1.1.2 0 .1-.1-.1-.3-.3-.5-.6-.7-.1-.1-.3.1-.3.2.8 2 1.8 4.1 3 5.9.1.1.2 0 .2-.1-.6-1.7-1.5-3.5-2.4-5.2zm-2.1-1.1c.4 1.4.8 2.9 1.4 4.2.1.2.3 0 .3-.1-.3-1.4-.9-2.9-1.5-4.2 0-.2-.2-.1-.2.1zm-1 .3c.6 2.3 1 4.7 1.6 7 .1.2.4.2.3-.1-.3-2.4-.9-4.7-1.6-7-.1-.2-.4-.1-.3.1zm-.5.5c.1 1.4-.1 2.9-.1 4.3 0 .2.2.2.3 0 .3-1.4.3-2.9.1-4.4 0 0-.3 0-.3.1zm-.9.3c-1.2 1.8-2.5 4.1-2.7 6.3 0 .2.2.2.3 0 .8-2.2 1.4-4.2 2.7-6.2 0-.1-.2-.3-.3-.1zm-1.9.3c-1.1 1.9-2 4.1-2.3 6.3 0 .2.3.2.3.1.6-2.1 1.2-4.2 2.3-6.1.2-.4-.1-.6-.3-.3zm-1.3.8c-1.1 1.4-2.2 3.1-2.7 4.8-.1.2.2.3.3.1.8-1.7 1.5-3.3 2.6-4.8.1 0-.1-.2-.2-.1zm-1.7.3c-1.2 1.7-2.4 3.6-3 5.7-.1.2.3.3.4.2 1-1.9 1.8-3.8 3-5.6.1-.3-.2-.5-.4-.3zm-1.1.2c.1-.1-.1-.3-.2-.1-1.2 1.8-2.7 4-3.1 6.1 0 .2.2.3.3.1.5-1 .9-2.1 1.3-3.1.5-1 1.1-2 1.7-3zm-1.6-.2c-1.4 1.9-2.7 4.1-3.2 6.4-.1.2.3.3.4.1.9-2.2 1.7-4.3 3.1-6.3.1-.2-.2-.4-.3-.2zm-1.6.8c-1.4 2.2-2.6 4.5-3.2 7 0 .1.1.2.2.1 1-2.4 2-4.7 3.3-6.9.1-.2-.2-.4-.3-.2zm-1.7.3c-1.2 1.2-2.4 2.6-3.1 4.2-.1.1.1.3.2.1.9-1.5 1.8-2.9 3-4.2.1-.1-.1-.2-.1-.1zm-1.9.5c-2.5 1.6-4.9 4.1-5.8 7 0 .1.2.2.2.1 1.6-2.7 3.1-5 5.7-6.8.2-.2.1-.4-.1-.3zm-3.1 1.9c-1.7 1.8-3.3 3.7-4.6 5.7-.1.1.1.2.1.1 1.5-1.9 3-3.9 4.7-5.7 0 0-.1-.2-.2-.1zm.2-.7c.1-.1 0-.3-.1-.2-2.6 1.9-5.5 4.1-6.6 7.3 0 .1.2.2.2.1 1.5-3.1 3.9-5.2 6.5-7.2z" fill="#1b141c" stroke-width="none" opacity="1"></path></g></g><g id="svga-group-nose-single-move" transform="matrix(1,0,0,1,0,0)"><g id="svga-group-nose-single"><path id="SvgjsPath12340" d="M105.35 105.76c.4.4 2.55 1.75 3.44 3.19.89 1.44.43 3.21 0 3.82-.43.61-1.87 1.52-3.69.99-1.82-.53-2.45-1.42-2.45-1.42s-2.18 1.44-4.83.46c0 0-1.44.4-2.3.71-.86.3-3.06.99-4.05-.89-.99-1.87.46-4.25 1.87-5.77 1.42-1.52 3.06-3.82 4.68-4.4 1.62-.58 4.75-.33 5.84 1.14 1.08 1.46.8 1.49 1.49 2.17z" fill="#f0c7b1" stroke-width="none" opacity="1" transform="translate(0 1)"></path><path id="SvgjsPath12341" d="M103.76 112.15c.33.55.88.54 1.42.74.41.15.74.46 1.16.61.64.24 1.16-.46 1.03-1.03-.22-1.05-1.8-2-2.9-1.69.15-.31.28-.63.37-.99.07-.29-.36-.51-.51-.21-2.02 4.05-6.8 4.44-9.23.45-.05-.08-.19-.03-.16.07.11.34.25.65.42.95-1.05-.05-2.6.88-2.25 1.97-.04.45.45.69.83.6.34-.01.65-.17.95-.35.27-.16.68-.19 1.04-.36.27-.13.41-.36.46-.6.24.2.49.37.76.52-1.57.04-2.96 1.47-4.55.53-3.04-1.79.01-5.5 1.54-7.11.12-.13-.06-.31-.2-.2-1.86 1.63-4.3 4.28-2.68 6.91 1.62 2.64 4.24.52 6.41.13 1.99.84 4.49.45 6-1.14.03.06.06.13.09.2z" fill="#c27b55" stroke-width="none" opacity="1" transform="translate(0 1)"></path><path id="SvgjsPath12342" d="M105.27 105.55c-.14-.07-.3.11-.17.22 1.55 1.38 3.8 2.66 3.9 5.01.06 1.31-.62 2.37-1.87 2.71-1.29.36-2.54-.25-3.75-.62-.18-.05-.26.19-.12.28 2.03 1.45 5.38 2.01 6.3-1 .9-2.94-1.92-5.45-4.29-6.6z" fill="#c27b55" stroke-width="none" opacity="1" transform="translate(0 1)"></path><path id="SvgjsPath12343" d="M97.87 102.59c2.41-.65 4.55-.1 6.67 1.1.11.06.23-.09.13-.17-1.88-1.61-4.56-1.86-6.86-1.13-.12.04-.07.24.06.2z" fill="#c27b55" stroke-width="none" opacity="1" transform="translate(0 1)"></path><path id="SvgjsPath12344" d="M96.72 101.68c1.2-2.62 1.2-5.98.16-8.64-.04-.11-.2-.07-.18.05.49 2.99.34 5.5-.3 8.45-.04.19.23.33.32.14z" fill="#c27b55" stroke-width="none" opacity="1" transform="translate(0 1)"></path><path id="SvgjsPath12345" d="M102.02 105.4c-.49-.55-1.41-.62-2.03-.26-.28.17-.49.41-.63.69-.06-.07-.11-.15-.17-.22-.93-1.1-2.81-.19-2.79 1.15.03 1.94 2.2 3.56 4.06 3.09 1.92-.48 2.94-2.91 1.56-4.45z" fill="#f8d5c3" stroke-width="none" opacity="1" transform="translate(0 1)"></path></g></g><g id="svga-group-hair-front"><path id="SvgjsPath12090" d="M61.3 97.9s.9-21.3 1.5-25.4c.5-4.2 2.5-15.6 6.4-18.7s7.1-6 16.9-4 11.4 4 18.5 2.4 11.3-3.1 11.3-3.1 5.6 1.1 9.3 2c3.6.9 6.5 4.5 9.1 10.9 2.5 6.4 5.6 18.9 4.9 27.8-.7 8.9.9 7.6.9 7.6l3.3-7.3s3.1-5.8 1.6-10.5c0 0 .7-4.2.6-6.4s-1.8-5.3-1.8-5.3.7-6.9 0-9.3-1.3-3.3-1.3-3.3.6-4.2-1.3-7.3-5.4-6-5.4-6-4.7-12-8.9-14-6-5.1-11.3-6c-5.3-.9-11.6.5-11.6.5s-2.5-2-8.2-.2c0 0-4-1.6-10.4.9s-8.7 6.4-8.7 6.4-6.4 2.2-8.2 5.3c0 0-8.2 4-10.4 10.9s-.9 10.7-.9 10.7-2.5 5.8-.7 11.5c0 0-3.1 3.3-.9 11.3 0 0-1.8 3.8.5 9.4 2.3 5.7 2.1 9 5.2 9.2z" fill="#2a232b" stroke-width="none" opacity="1" stroke="none"></path><path id="SvgjsPath12091" d="M144.4 67.3c.7-4.2.2-8.7-1.3-12.2 0-.1-.1-.2-.2-.2.1-1.3.1-2.6-.2-4-.8-4.1-3.6-6.7-6.7-9.3-.1 0-.1-.1-.1-.1-1.3-4.4-3.6-8.6-6.6-11.9-6.3-7.1-17.5-11.7-26.2-6-.2.2-.1.6.2.5 9.9-4 19.9-.2 26.2 8.2 5.2 6.9 6.2 14.6 5.6 23-.1.6.9.7 1.1.2 1.1-3.9 1.1-8.1.1-12.1 1.5 1.7 3.3 3.2 4.3 5.2 2.7 5.4.1 11.5-3.1 16-.4.5.5 1 .8.5 1.9-2.6 3.5-5.5 4.2-8.6.6 3.4 1 6.6.4 10.1-.6 3.4-2.2 6.3-3.6 9.5-.2.4.3.9.7.5 1.8-1.9 3-4.4 3.8-7.2.4 2 .7 3.9.4 6-.2 2.2-1.2 4.1-1.5 6.2 0 .3.4.5.6.3.4-.4.8-.9 1.1-1.5 0 3.4-.7 6.4-1.9 9.6-.5 1.3-1.7 4.8-3 6.6.7-10.4-.3-22-3.5-31.8-1.7-5.2-4.7-10.9-9.5-13.5.6 0 1.3-.1 1.9-.2.5-.1.5-.9 0-1-5.9-1.1-11.6-1.8-16.8-5.2-6.8-4.5-11.4-12.8-9.3-21 .1-.5-.6-.7-.8-.2-3.9 9.8 3.3 20 12.6 24.8-2.1.7-4.3 1.3-6.4 1.8-8.5 0-17.6-2.6-20.1-11.9-2.8-10.2 6.4-18 16.1-15.9.4.1.6-.5.2-.6-3-1.2-5.9-1.2-8.6-.3-6.4-.8-13.1 1-17.6 5.7h-.2c-3.6 2.1-7.2 4.2-9.8 7.2-7.6 3.3-14.3 13.7-11.7 21.8-1.1 3.3-1.4 7.2-.8 10.9-1.5 3-2.1 8.1-.8 11.8-1.4 4.4.5 9.3 2.2 13.4 1.2 2.8 1 5.2 4 6.4.2.1.4.1.5-.1.4-.1.7-.3.8-.8.1-11.4.8-22.8 3.6-33.8 1.2-4.8 2.8-10.3 7.4-12.8 5.2-2.9 12-1.2 17.4.2h.1c8 3.5 18.2 2.3 25.6-2.1 2.5 1 5.1 1.7 7.6 1.9 7.9 2.9 10.9 12.9 12.2 20.6 1.6 8.8 2.4 17.4 1.8 26.3-.1.8.9.9 1.3.5 2.6-1.3 2.5-3.6 3.6-6.3 1.8-4.1 3.5-9.1 2.2-13.4 1.8-3.6 1.2-8.7-.3-11.7zM66.2 57c-5.3 12.1-5.6 27-5.7 40-1.4-1.6-2.7-5.5-3.3-7-1.2-3.2-2-6.2-1.9-9.6.3.6.7 1.1 1.1 1.5.2.2.7.1.6-.3-.3-2.1-1.3-4.1-1.5-6.2-.2-2.1 0-4 .5-6 .7 2.7 2 5.3 3.8 7.2.4.4.9-.1.7-.5-1.4-3.2-3-6-3.6-9.5-.5-2.9-.3-5.7.1-8.6.7 1.3 1.7 2.6 3 3.7.4.3 1.1-.1.8-.6-6.4-9-2.3-19 5.9-24.7-.6 1-1.1 2.2-1.4 3.4-1.1 4.2.7 9.5 5 11.1.4.2.7-.4.4-.7-4.3-4.4-5.8-9.6-1.6-15 .2-.2.3-.4.5-.5.1 0 .1-.1.2-.1.1-.1.2-.2.2-.3 1.7-1.7 3.9-2.8 5.9-4.2-3.5 5.8-2.8 13.4 2.9 17.4.3.2.7-.3.4-.5-5-5-5.6-12.1-1.2-17.7 1.5-1.9 3.3-3.3 5.2-4.3-5.4 5.2-4.8 15.3-.2 20.9 1.1 1.4 2.3 2.5 3.7 3.5-8-2.2-16.7-1-20.5 7.6zm21-9.5c-8.1-6.1-8.7-18.1-.3-24 2.2-.6 4.5-1 6.8-1.1-5.1 2.5-8.7 8.2-8.1 14.3.9 8.2 7.6 13.5 15.1 14.9-4.6.2-9.2-.8-13.5-4.1z" fill="#1b141c" stroke-width="none" opacity="1" stroke="none"></path><path id="SvgjsPath12092" d="M127.9 46.8c-5.5 0-10.3-2.4-13.9-6.4-3.4-3.7-8.8-10.4-6.5-15.8.2-.4-.3-.7-.5-.3-2.8 5.2 1.5 11 4.7 15 4 5 9.6 8.8 16.2 8.1.4 0 .4-.6 0-.6zM105 44.4c-4.9-4.8-10.2-10.6-7-18.1.2-.4-.3-.7-.5-.3-3.8 7.3 1.3 14.6 7.2 18.8.2.2.5-.2.3-.4zm-.4 2.1c-6.3-4.2-12.4-9.2-12.3-17.4 0-.3-.5-.3-.5 0-.4 8.2 5.5 14.6 12.6 17.8.2 0 .4-.2.2-.4zm2 .8C100.8 47 95.8 45 92 40.5c-.2-.2-.6.1-.4.4 3.6 4.4 9.2 7.3 14.9 7 .4-.1.4-.5.1-.6zm-17.4-2.1C84 40 81.4 32.7 87 26.6c.3-.4-.2-.9-.5-.5-6.2 5.6-4.3 15.4 2.2 20 .4.2.9-.5.5-.9zM80.6 44c-3-4-3.9-8.9-1.8-13.5.2-.3-.3-.6-.5-.3-2.4 4.6-1.9 10.4 1.9 14.1.2.2.5 0 .4-.3zm-8.7-8.3c.1-.3-.3-.4-.4-.1-.7 2.6-.8 5.6.4 8 .1.3.6.1.5-.2-.7-2.6-1.1-5-.5-7.7zm0 10.2c-.8-1-1.6-1.9-2.1-3.1-.1-.2-.4 0-.3.1.5 1.2 1.2 2.4 2.3 3.2 0 .1.2-.1.1-.2zM63.8 53c-2.1-3.9-2.4-7.4-1.2-11.6.1-.4-.5-.6-.6-.2-1.3 3.8-1.9 9.1 1.3 12.2.2.4.7 0 .5-.4zm-2 3.6c-1.5-2.5-2.4-4.8-2.2-7.7 0-.2-.3-.2-.4 0-.3 2.8.2 5.9 2.2 8 .3.2.6 0 .4-.3zm-2.2 15.1c-1.2-3.3-2-6.4-1.7-10.1 0-.2-.3-.3-.4 0-.5 3.5-.3 7.3 1.5 10.4.2.2.7 0 .6-.3zM56 74.4c-.1-.2-.3 0-.3.1.4 1.1.7 2.2 1.3 3.2.1.2.4.1.3-.1-.2-1.1-.8-2.2-1.3-3.2zM139.8 52c-.2-1.5-.3-4.5-2.2-4.6-.3 0-.4.4-.1.5 1.6.8 1.5 5.2 1.5 6.6-.1 2.1-.6 4-1.3 5.9-.1.3.4.5.6.2 1.3-2.6 1.8-5.6 1.5-8.6zm2.3 9.7c-.1-.4-.6-.2-.6.2.6 3.1-.3 5.8-1.9 8.4-.2.3.2.6.5.4 2.2-2.4 2.8-6 2-9zm1.2 11.7c0-.3-.5-.3-.5 0 .2 1.8-.1 3.5-.5 5.2 0 .2.2.3.3.1.8-1.6.9-3.5.7-5.3zm-22.7-46.8c-.3-.1-.4.3-.1.4 7.2 3 11.4 13.5 13.6 20.3.1.3.5.2.4-.1-1.7-7.2-6.5-17.8-13.9-20.6z" fill="#3a353a" stroke-width="none" opacity="1" stroke="none"></path></g><g id="svga-group-glasses-single-move" transform="matrix(1,0,0,1,0,0)"><g id="svga-group-glasses-single"></g></g></g></g></g><rect id="svga-credit-rect" width="200" height="15" x="0" y="185" fill="#ecf0f1" opacity="0.5" style="display: none;"></rect><text id="svga-credit-text" font-family="Avenir Next, Roboto, Helvetica, Arial, sans-serif" font-size="10px" text-anchor="start" font-weight="400" size="10px" anchor="start" weight="400" fill="#333333" x="33.40447998046875" y="182.60824704170227" style="display: none;"><tspan id="SvgjsTspan11849" dy="13" x="33.40447998046875">Created on AvatarMaker.com</tspan></text></g><defs id="SvgjsDefs11796"><linearGradient id="SvgjsLinearGradient12635" x1="81.0032" y1="84.4741" x2="81.0032" y2="109.8612" gradientUnits="userSpaceOnUse" class="svga-on-canvas-glasses-gradient-single-0-null"><stop id="SvgjsStop12636" stop-opacity="1" stop-color="#9ab4d3" offset="0" ></stop><stop id="SvgjsStop12637" stop-opacity="0.7593" stop-color="#93aed1" offset="0.2407" ></stop><stop id="SvgjsStop12638" stop-opacity="0.4009" stop-color="#7e9ecc" offset="0.5991" ></stop><stop id="SvgjsStop12639" stop-opacity="0" stop-color="#6086c4" offset="1" ></stop></linearGradient><linearGradient id="SvgjsLinearGradient12641" x1="-18.9968" y1="84.4741" x2="-18.9968" y2="109.8612" gradientTransform="matrix(-1 0 0 1 100 0)" gradientUnits="userSpaceOnUse" class="svga-on-canvas-glasses-gradient-single-1-null"><stop id="SvgjsStop12642" stop-opacity="1" stop-color="#9ab4d3" offset="0" ></stop><stop id="SvgjsStop12643" stop-opacity="0.7593" stop-color="#93aed1" offset="0.2407" ></stop><stop id="SvgjsStop12644" stop-opacity="0.4009" stop-color="#7e9ecc" offset="0.5991" ></stop><stop id="SvgjsStop12645" stop-opacity="0" stop-color="#6086c4" offset="1" ></stop></linearGradient><linearGradient id="SvgjsLinearGradient12699" x1="81.0032" y1="84.4741" x2="81.0032" y2="109.8612" gradientUnits="userSpaceOnUse" class="svga-on-canvas-glasses-gradient-single-0-null"><stop id="SvgjsStop12700" stop-opacity="1" stop-color="#9ab4d3" offset="0" ></stop><stop id="SvgjsStop12701" stop-opacity="0.7593" stop-color="#93aed1" offset="0.2407" ></stop><stop id="SvgjsStop12702" stop-opacity="0.4009" stop-color="#7e9ecc" offset="0.5991" ></stop><stop id="SvgjsStop12703" stop-opacity="0" stop-color="#6086c4" offset="1" ></stop></linearGradient><linearGradient id="SvgjsLinearGradient12705" x1="-18.9968" y1="84.4741" x2="-18.9968" y2="109.8612" gradientTransform="matrix(-1 0 0 1 100 0)" gradientUnits="userSpaceOnUse" class="svga-on-canvas-glasses-gradient-single-1-null"><stop id="SvgjsStop12706" stop-opacity="1" stop-color="#9ab4d3" offset="0" ></stop><stop id="SvgjsStop12707" stop-opacity="0.7593" stop-color="#93aed1" offset="0.2407" ></stop><stop id="SvgjsStop12708" stop-opacity="0.4009" stop-color="#7e9ecc" offset="0.5991" ></stop><stop id="SvgjsStop12709" stop-opacity="0" stop-color="#6086c4" offset="1" ></stop></linearGradient><linearGradient id="SvgjsLinearGradient12763" x1="80.0682" y1="83.2839" x2="80.0682" y2="108.722" gradientUnits="userSpaceOnUse" class="svga-on-canvas-glasses-gradient-single-0-null"><stop id="SvgjsStop12764" stop-opacity="1" stop-color="#899ba1" offset="0" ></stop><stop id="SvgjsStop12765" stop-opacity="0.6554" stop-color="#7490b3" offset="0.3446" ></stop><stop id="SvgjsStop12766" stop-opacity="0.2966" stop-color="#6589c0" offset="0.7034" ></stop><stop id="SvgjsStop12767" stop-opacity="0" stop-color="#6086c4" offset="1" ></stop></linearGradient><linearGradient id="SvgjsLinearGradient12769" x1="-19.9318" y1="83.2839" x2="-19.9318" y2="108.722" gradientTransform="matrix(-1 0 0 1 100 0)" gradientUnits="userSpaceOnUse" class="svga-on-canvas-glasses-gradient-single-1-null"><stop id="SvgjsStop12770" stop-opacity="1" stop-color="#899ba1" offset="0" ></stop><stop id="SvgjsStop12771" stop-opacity="0.6554" stop-color="#7490b3" offset="0.3446" ></stop><stop id="SvgjsStop12772" stop-opacity="0.2966" stop-color="#6589c0" offset="0.7034" ></stop><stop id="SvgjsStop12773" stop-opacity="0" stop-color="#6086c4" offset="1" ></stop></linearGradient><linearGradient id="SvgjsLinearGradient12858" x1="80.0682" y1="83.2839" x2="80.0682" y2="108.722" gradientUnits="userSpaceOnUse" class="svga-on-canvas-glasses-gradient-single-0-null"><stop id="SvgjsStop12859" stop-opacity="1" stop-color="#899ba1" offset="0" ></stop><stop id="SvgjsStop12860" stop-opacity="0.6554" stop-color="#7490b3" offset="0.3446" ></stop><stop id="SvgjsStop12861" stop-opacity="0.2966" stop-color="#6589c0" offset="0.7034" ></stop><stop id="SvgjsStop12862" stop-opacity="0" stop-color="#6086c4" offset="1" ></stop></linearGradient><linearGradient id="SvgjsLinearGradient12864" x1="-19.9318" y1="83.2839" x2="-19.9318" y2="108.722" gradientTransform="matrix(-1 0 0 1 100 0)" gradientUnits="userSpaceOnUse" class="svga-on-canvas-glasses-gradient-single-1-null"><stop id="SvgjsStop12865" stop-opacity="1" stop-color="#899ba1" offset="0" ></stop><stop id="SvgjsStop12866" stop-opacity="0.6554" stop-color="#7490b3" offset="0.3446" ></stop><stop id="SvgjsStop12867" stop-opacity="0.2966" stop-color="#6589c0" offset="0.7034" ></stop><stop id="SvgjsStop12868" stop-opacity="0" stop-color="#6086c4" offset="1" ></stop></linearGradient></defs></svg>