<svg  version="1.0" xmlns="http://www.w3.org/2000/svg" 
 width="40.000000pt" height="40.000000pt" viewBox="0 0 183.000000 183.000000"
 preserveAspectRatio="xMidYMid meet">

<g transform="translate(0.000000,183.000000) scale(0.100000,-0.100000)"
fill="#0f766e" stroke="none">
<path d="M760 1819 c-111 -23 -131 -31 -147 -62 -13 -26 -63 -163 -63 -174 0
-2 15 -3 34 -3 38 0 66 -28 66 -65 0 -11 7 -33 15 -49 8 -15 15 -36 15 -45 0
-13 2 -14 9 -1 6 8 7 18 5 22 -3 4 0 8 7 8 17 0 4 -72 -16 -86 -8 -6 -15 -16
-15 -23 0 -27 40 32 54 80 21 70 55 119 87 126 15 3 48 27 75 54 27 27 54 49
61 49 19 0 110 -57 172 -107 29 -24 58 -43 63 -43 5 0 -5 12 -24 27 -65 54
-70 60 -58 68 36 22 230 -110 230 -157 0 -12 -10 -48 -22 -80 l-21 -59 21 -15
c26 -18 29 -44 5 -44 -11 -1 -6 -6 12 -14 61 -26 256 -280 335 -436 25 -48 81
-108 105 -113 37 -6 31 14 -15 56 -47 42 -50 54 -13 63 20 6 31 2 45 -16 10
-13 22 -20 25 -16 4 4 2 11 -5 15 -10 6 -10 11 3 21 10 8 15 29 15 61 l0 49
-100 -6 c-88 -6 -102 -5 -120 11 -11 10 -20 22 -20 26 0 4 51 9 114 11 63 1
118 6 122 11 10 10 -13 155 -38 234 l-18 61 -46 -25 c-25 -14 -51 -36 -57 -50
-18 -39 -79 -43 -160 -9 -36 14 -37 17 -37 64 0 48 -30 134 -50 147 -6 4 -8
11 -4 16 3 5 10 7 15 4 5 -4 9 3 9 13 0 11 10 26 23 35 l22 15 -29 11 c-48 19
-89 52 -78 63 7 7 20 4 39 -9 15 -11 35 -23 43 -26 8 -4 30 -16 48 -27 34 -21
152 -43 152 -29 0 4 -20 11 -45 15 -27 4 -62 19 -87 38 -74 56 -103 75 -115
75 -16 1 -16 18 -1 61 10 30 9 35 -13 53 -59 47 -218 108 -331 127 -76 12
-236 11 -298 -1z m421 -136 c82 -41 90 -48 65 -51 -33 -4 -72 10 -138 51 -47
28 -61 47 -35 47 7 0 56 -21 108 -47z m134 -51 c-3 -3 -16 5 -28 17 l-22 23
28 -17 c15 -10 25 -20 22 -23z m299 -512 c14 -14 -8 -12 -74 5 l-55 15 60 -5
c33 -3 64 -10 69 -15z m29 -91 c43 -12 51 -33 10 -25 -16 2 -49 8 -75 11 -27
3 -48 10 -48 16 0 12 66 11 113 -2z"/>
<path d="M508 1723 c6 -2 18 -2 25 0 6 3 1 5 -13 5 -14 0 -19 -2 -12 -5z"/>
<path d="M327 1622 c-13 -14 -15 -22 -7 -27 16 -10 33 9 28 30 -3 16 -5 15
-21 -3z"/>
<path d="M221 1514 c-34 -37 -61 -73 -61 -80 0 -8 -4 -14 -9 -14 -8 0 -55 -91
-96 -183 -25 -57 -31 -108 -14 -121 20 -16 23 -162 3 -170 -8 -3 -14 -11 -14
-17 0 -9 4 -9 14 0 15 13 32 -1 21 -18 -3 -6 3 -15 12 -20 17 -10 17 -12 -1
-26 -12 -9 -14 -15 -7 -15 12 0 131 -88 131 -97 0 -2 -8 -2 -17 1 -10 3 -54 8
-98 10 l-80 5 35 -31 c35 -30 35 -30 7 -24 -26 6 -27 5 -21 -21 26 -108 97
-246 183 -353 62 -77 98 -107 114 -91 13 13 67 15 67 3 0 -5 -9 -17 -20 -27
-15 -14 -17 -21 -9 -31 9 -11 15 -11 32 1 25 17 60 19 88 5 12 -7 19 -7 19 -1
0 13 152 12 168 -1 8 -7 12 -7 12 1 0 16 21 13 42 -6 18 -16 18 -15 16 18 -3
29 0 34 20 37 18 3 22 -1 22 -21 0 -20 4 -24 20 -20 11 3 27 0 35 -7 10 -9 15
-9 15 -1 0 6 8 11 19 11 16 0 19 -10 23 -63 3 -34 4 -63 3 -65 -1 -1 -19 -3
-41 -5 l-39 -2 -3 48 c-4 65 -28 58 -25 -8 l1 -47 -41 6 c-55 8 -76 9 -113 1
-49 -10 -87 19 -82 62 2 18 0 33 -4 33 -4 0 -8 -19 -8 -43 0 -48 -3 -46 152
-92 61 -18 212 -23 313 -11 33 4 78 9 99 11 120 13 377 141 362 180 -2 7 4 21
15 31 11 10 19 12 19 6 0 -21 22 -12 58 24 28 28 33 37 22 44 -8 5 -18 6 -22
4 -4 -3 -8 -1 -8 4 0 11 24 22 49 22 10 0 28 11 40 24 l22 23 -23 6 c-13 4
-47 4 -75 0 -51 -5 -54 -4 -84 28 -40 45 -61 91 -46 101 8 5 6 8 -5 8 -14 0
-78 93 -78 114 0 3 12 6 28 6 44 0 55 12 41 43 -15 33 -5 46 21 29 11 -7 27
-12 37 -12 9 0 -9 17 -40 37 -30 21 -51 41 -45 44 5 4 3 9 -7 13 -22 8 -15 41
10 41 11 0 23 -4 27 -10 5 -6 8 -4 8 5 0 8 -14 31 -30 50 -16 19 -30 41 -30
48 0 19 8 14 24 -15 9 -16 15 -21 16 -13 0 8 9 -3 20 -25 11 -22 17 -31 14
-20 -4 11 -12 39 -20 62 -16 52 -43 103 -44 83 0 -9 7 -26 16 -38 8 -12 14
-30 12 -40 -2 -12 -9 -5 -21 21 -19 39 -20 78 -1 84 10 3 37 -50 48 -97 11
-46 44 -88 103 -128 50 -34 103 -58 103 -47 0 2 -25 19 -55 37 -31 18 -53 38
-51 45 3 7 -1 10 -8 7 -12 -5 -29 21 -41 65 -5 16 -4 21 4 17 6 -4 11 -15 11
-25 0 -10 7 -25 17 -32 14 -13 15 -12 6 6 -6 11 -19 40 -29 65 -21 54 -39 79
-23 32 13 -38 4 -57 -10 -21 -6 14 -10 17 -10 8 -1 -8 6 -24 14 -35 8 -10 14
-28 14 -39 0 -19 -11 1 -61 114 -15 34 -16 46 -7 57 9 11 9 13 -2 9 -28 -13
-62 -67 -61 -98 1 -18 2 -45 2 -61 0 -17 8 -39 18 -50 15 -18 15 -19 0 -13
-13 5 -16 0 -13 -26 2 -27 -4 -38 -36 -66 -30 -26 -43 -31 -51 -23 -9 9 -6 19
13 39 l24 27 -25 -16 c-14 -8 -30 -29 -35 -46 l-11 -31 -49 39 c-27 21 -73 50
-102 64 -69 34 -79 53 -46 84 30 28 40 21 46 -33 4 -33 4 -31 3 10 -1 67 -18
68 -88 5 -76 -68 -103 -67 -219 10 -33 22 -63 40 -67 40 -3 0 12 -18 33 -41
48 -49 103 -79 144 -79 76 0 98 -174 28 -212 -12 -6 -44 -17 -72 -24 -48 -13
-53 -12 -130 17 -44 17 -96 39 -116 50 -87 44 -220 200 -235 277 -6 27 -2 36
26 62 l33 30 -21 63 c-11 34 -24 70 -27 79 -5 12 -1 20 11 24 11 4 26 13 36
21 14 13 17 11 28 -21 14 -42 1 -72 -32 -79 -19 -4 -18 -5 6 -6 21 -1 27 -5
22 -17 -4 -9 -2 -13 5 -8 18 11 71 136 61 143 -14 9 -74 131 -64 131 4 0 20
-26 36 -57 26 -54 29 -56 42 -38 26 36 18 63 -28 86 -24 12 -50 28 -59 35 -12
11 -19 11 -32 1 -20 -15 -28 -103 -9 -99 25 5 23 -27 -2 -55 -22 -24 -28 -26
-36 -13 -12 19 -13 93 -1 105 12 12 26 175 18 207 -5 20 -64 58 -89 58 -4 0
-34 -30 -67 -66z m243 -234 l39 -80 -18 -43 c-10 -23 -22 -46 -27 -52 -11 -13
12 56 24 72 6 7 -5 39 -32 90 -22 43 -38 67 -34 53 5 -19 4 -22 -6 -14 -12 12
-5 54 8 54 4 0 25 -36 46 -80z m40 18 c9 -17 14 -33 12 -36 -4 -4 -36 51 -36
63 0 13 10 3 24 -27z m-174 12 c0 -18 -32 -90 -40 -90 -5 0 -11 19 -15 41 -5
30 -3 44 6 50 19 12 49 11 49 -1z m200 -10 c0 -5 -2 -10 -4 -10 -3 0 -8 5 -11
10 -3 6 -1 10 4 10 6 0 11 -4 11 -10z m-81 -53 c12 -24 21 -48 21 -53 -1 -10
-49 76 -50 89 -1 17 10 4 29 -36z m-349 -154 c0 -8 16 -33 35 -55 32 -38 33
-42 20 -67 -20 -35 -51 -71 -63 -71 -18 0 -32 167 -17 208 6 17 25 6 25 -15z
m1270 -121 c0 -15 -2 -15 -10 -2 -13 20 -13 33 0 25 6 -3 10 -14 10 -23z m38
-107 c-8 -8 -48 35 -48 51 0 10 9 4 26 -16 15 -17 24 -33 22 -35z m-1124 -14
c28 -22 65 -54 81 -72 l30 -32 -35 23 c-19 14 -36 28 -38 32 -2 4 -10 8 -19 8
-26 0 -75 41 -68 58 4 12 3 13 -10 2 -14 -12 -22 0 -8 13 10 11 13 9 67 -32z
m1211 29 c3 -5 1 -10 -4 -10 -6 0 -11 5 -11 10 0 6 2 10 4 10 3 0 8 -4 11 -10z
m-131 -106 c10 -27 7 -39 -20 -75 -25 -33 -26 -33 -20 -7 6 28 -7 47 -20 27
-5 -8 -3 -9 6 -4 8 5 11 4 6 -3 -5 -9 -36 -7 -36 3 0 5 66 74 71 74 4 1 10 -6
13 -15z m-800 -123 c39 -21 100 -49 136 -61 36 -13 69 -27 75 -32 5 -4 18 -8
30 -8 19 -1 19 -1 1 -11 -23 -14 -105 1 -170 32 -26 12 -50 19 -53 15 -3 -3
32 -23 78 -45 46 -22 98 -52 114 -66 32 -28 34 -28 -37 -9 -28 8 -168 113
-165 124 1 4 -19 24 -45 44 -43 33 -60 56 -41 56 3 0 38 -17 77 -39z m676
-381 c0 -10 -6 -20 -12 -23 -17 -6 -48 11 -48 26 0 7 4 6 10 -3 8 -12 10 -9
10 13 0 25 2 27 20 17 11 -6 20 -19 20 -30z m-139 -11 c13 -26 -5 -54 -20 -30
-14 22 -31 3 -31 -33 0 -40 26 -68 41 -45 5 8 12 25 15 39 9 33 33 60 54 60
22 0 70 -44 70 -65 0 -9 4 -14 9 -10 15 9 24 -16 11 -28 -10 -9 -14 -9 -17 0
-3 8 -11 5 -24 -8 -20 -20 -45 -24 -68 -10 -9 6 -20 2 -32 -10 -11 -11 -26
-19 -34 -19 -22 0 -55 36 -57 63 -3 49 2 90 13 103 17 21 57 17 70 -7z m-118
-7 c11 -12 13 -22 7 -32 -14 -22 -12 -40 4 -40 16 0 30 -60 18 -72 -16 -16
-81 -21 -97 -8 -17 14 -18 136 -2 158 14 18 51 15 70 -6z m-327 -14 c16 -17
15 -18 -34 -18 -37 0 -52 4 -52 13 0 20 9 26 41 25 16 -1 36 -9 45 -20z m232
-1 c2 -12 -3 -17 -17 -17 -12 0 -21 6 -21 13 0 31 32 34 38 4z m-83 -187 c15
-6 7 -9 -30 -9 -36 -1 -46 2 -35 9 18 12 38 12 65 0z"/>
<path d="M1150 190 c0 -11 7 -23 15 -27 21 -8 28 1 20 26 -8 27 -35 27 -35 1z"/>
<path d="M936 153 c-11 -11 -6 -23 9 -23 8 0 15 4 15 9 0 13 -16 22 -24 14z"/>
<path d="M413 1573 c15 -2 37 -2 50 0 12 2 0 4 -28 4 -27 0 -38 -2 -22 -4z"/>
<path d="M554 1562 c-21 -13 -34 -50 -39 -108 l-5 -59 16 65 c11 46 23 72 42
87 18 15 22 23 12 23 -8 0 -20 -4 -26 -8z"/>
<path d="M566 1461 c-17 -19 -17 -21 11 -55 15 -20 31 -36 36 -36 14 0 7 12
-18 32 -36 28 -32 55 8 67 29 8 30 9 6 10 -14 1 -34 -8 -43 -18z"/>
<path d="M930 1430 c0 -5 17 -17 37 -25 20 -9 51 -26 67 -39 31 -23 90 -56
101 -56 18 0 -1 34 -37 64 -52 45 -168 83 -168 56z"/>
<path d="M835 1393 c35 -36 141 -117 170 -129 41 -17 45 -17 45 -4 0 5 -19 19
-42 31 -24 12 -68 38 -98 59 -66 44 -89 57 -75 43z"/>
<path d="M521 1374 c0 -11 3 -14 6 -6 3 7 2 16 -1 19 -3 4 -6 -2 -5 -13z"/>
<path d="M1663 1320 c0 -41 2 -58 4 -37 2 20 2 54 0 75 -2 20 -4 3 -4 -38z"/>
<path d="M1524 1295 c37 -20 70 -34 73 -32 6 7 -80 55 -113 62 -17 4 -2 -8 40
-30z"/>
<path d="M909 1303 c10 -21 49 -49 55 -41 2 2 -13 16 -32 33 -30 25 -33 26
-23 8z"/>
<path d="M585 1300 c-3 -5 -2 -10 4 -10 5 0 13 5 16 10 3 6 2 10 -4 10 -5 0
-13 -4 -16 -10z"/>
<path d="M1185 1266 c-46 -25 -66 -66 -45 -90 7 -9 20 -16 30 -16 25 0 34 30
16 49 -20 20 -34 5 -18 -19 10 -16 10 -20 -2 -20 -22 0 -27 29 -10 55 18 27
64 41 91 27 24 -13 43 -4 43 19 0 26 -52 24 -105 -5z"/>
<path d="M1263 1193 c-3 -10 -8 -22 -11 -27 -3 -5 0 -6 6 -2 7 4 12 13 12 21
0 7 6 16 13 18 9 4 9 6 -1 6 -7 1 -15 -7 -19 -16z"/>
<path d="M981 1144 c-29 -37 -27 -49 16 -81 20 -15 47 -39 60 -52 20 -21 23
-22 17 -5 -15 40 -36 62 -63 67 -34 7 -47 34 -28 56 8 9 17 22 21 29 13 21 -2
13 -23 -14z"/>
<path d="M1205 1123 c-63 -80 -113 -165 -107 -187 5 -19 7 -18 14 9 4 17 18
43 31 59 l23 28 23 -78 c13 -44 30 -95 38 -114 15 -38 15 -43 -4 54 -4 18 -2
27 4 23 6 -4 3 22 -6 56 -19 69 -17 124 5 147 12 12 14 12 14 -5 1 -25 39 -96
40 -75 1 8 12 -12 25 -45 l24 -60 -5 100 c-5 111 -14 139 -15 49 l-1 -59 -20
60 c-12 33 -23 55 -25 48 -3 -7 0 -21 6 -32 6 -11 11 -25 11 -32 0 -22 -15 1
-30 47 l-15 44 -30 -37z m-9 -75 c1 -24 6 -61 12 -83 18 -64 6 -52 -18 19 -18
54 -19 68 -8 85 7 12 13 21 13 21 0 0 1 -19 1 -42z"/>
<path d="M1331 1118 c1 -13 5 -36 9 -53 7 -26 8 -22 9 23 0 29 -3 52 -9 52 -5
0 -9 -10 -9 -22z"/>
<path d="M1374 1098 l-19 -23 23 19 c21 18 27 26 19 26 -2 0 -12 -10 -23 -22z"/>
<path d="M18 1095 c-4 -6 -10 -39 -14 -74 -6 -58 -5 -64 10 -58 10 4 22 7 28
7 6 0 7 8 3 18 -4 9 -10 40 -14 67 -3 28 -9 45 -13 40z"/>
<path d="M1220 1043 c0 -16 5 -35 10 -43 7 -11 9 -3 8 27 -3 47 -18 60 -18 16z"/>
<path d="M650 1045 c0 -2 21 -19 48 -36 26 -18 41 -26 34 -16 -14 16 -82 60
-82 52z"/>
<path d="M545 1025 c11 -9 56 -51 101 -95 73 -72 147 -120 162 -106 3 3 0 6
-6 6 -6 0 -58 43 -116 95 -58 52 -118 100 -133 105 -26 10 -27 9 -8 -5z"/>
<path d="M860 1036 c0 -2 29 -20 65 -39 68 -36 125 -53 125 -37 0 6 -6 10 -13
10 -8 0 -40 13 -73 29 -63 31 -104 46 -104 37z"/>
<path d="M831 972 c43 -33 117 -72 136 -72 10 0 -19 20 -64 45 -88 48 -111 56
-72 27z"/>
<path d="M1165 951 c3 -25 15 -63 26 -85 10 -23 16 -32 13 -21 -4 11 -15 49
-25 85 -16 56 -18 59 -14 21z"/>
<path d="M1141 934 c-1 -12 6 -37 14 -55 l16 -34 -7 35 c-4 19 -10 44 -15 55
-7 19 -8 19 -8 -1z"/>
<path d="M0 880 c0 -28 2 -30 20 -20 11 6 20 15 20 20 0 5 -9 14 -20 20 -18
10 -20 8 -20 -20z"/>
<path d="M1052 890 c0 -14 2 -19 5 -12 2 6 2 18 0 25 -3 6 -5 1 -5 -13z"/>
<path d="M1448 838 c19 -19 14 -32 -5 -17 -16 13 -17 12 -5 -3 8 -10 17 -17
20 -16 4 1 18 -4 32 -11 24 -13 24 -13 -2 12 -16 14 -28 31 -28 37 0 5 -5 10
-12 10 -9 0 -9 -3 0 -12z"/>
<path d="M1183 816 c1 -11 9 -21 17 -23 10 -3 11 -2 4 4 -6 4 -14 15 -17 23
-5 11 -6 9 -4 -4z"/>
<path d="M1225 790 c-3 -5 -1 -10 4 -10 6 0 11 5 11 10 0 6 -2 10 -4 10 -3 0
-8 -4 -11 -10z"/>
<path d="M1590 704 c-67 -45 -80 -51 -80 -34 0 5 23 23 51 39 46 26 48 29 22
27 -16 0 -41 -11 -57 -24 -16 -12 -38 -22 -50 -23 -21 0 -21 0 -1 -10 27 -13
79 -95 71 -114 -3 -8 -2 -15 2 -15 4 0 18 -10 32 -23 48 -44 99 -79 110 -75 7
2 -9 18 -34 36 -51 37 -60 62 -22 62 14 0 28 5 31 10 3 6 17 10 30 10 13 0 27
-4 30 -10 11 -17 20 -11 32 20 10 26 9 30 -9 36 -14 4 -24 1 -30 -10 -5 -9
-18 -16 -29 -16 -11 0 -30 -5 -42 -11 -17 -7 -15 -5 5 11 65 50 69 55 63 72
-4 10 -13 15 -23 11 -14 -5 -15 -3 -4 8 16 17 16 37 0 21 -21 -21 -32 -13 -12
9 22 25 14 23 -36 -8 -19 -12 -38 -21 -42 -20 -4 1 -15 -8 -23 -20 -9 -13 -24
-23 -33 -23 -12 0 -9 7 13 24 16 13 32 23 35 22 3 -1 21 13 40 31 45 42 39 41
-40 -13z"/>
<path d="M1468 543 c12 -2 32 -2 45 0 12 2 2 4 -23 4 -25 0 -35 -2 -22 -4z"/>
<path d="M427 163 c-9 -9 12 -33 30 -33 11 0 11 4 3 20 -11 21 -22 25 -33 13z"/>
<path d="M604 155 c-8 -21 3 -45 20 -45 16 0 31 34 21 50 -9 15 -35 12 -41 -5z"/>
<path d="M715 120 c3 -5 11 -10 16 -10 6 0 7 5 4 10 -3 6 -11 10 -16 10 -6 0
-7 -4 -4 -10z"/>
</g>
</svg>
